#N canvas 483 115 450 300 10;
#X obj 141 204 pix_snap;
#X msg 151 166 snap;
#X obj 141 133 t a b;
#X msg 196 175 0 0;
#X obj 268 153 inlet;
#X obj 197 153 initbang;
#X obj 138 262 outlet;
#X obj 140 234 pix_resize;
#X msg 222 218 dimen \$1 \$2;
#X obj 323 157 inlet;
#X obj 390 155 inlet;
#X obj 141 111 gemhead 105;
#X connect 0 0 7 0;
#X connect 1 0 0 0;
#X connect 2 0 0 0;
#X connect 2 1 1 0;
#X connect 3 0 0 1;
#X connect 4 0 0 2;
#X connect 5 0 3 0;
#X connect 7 0 6 0;
#X connect 8 0 7 0;
#X connect 9 0 8 0;
#X connect 10 0 11 0;
#X connect 11 0 2 0;
