#N canvas 345 66 575 459 10;
#X obj 340 68 \$1;
#X obj 366 68 \$2;
#X obj 334 18 initbang;
#X obj 315 68 \$0;
#X obj 338 103 pack 0 0;
#X obj 29 188 grab_win;
#X obj 335 200 prepend \$0;
#X obj 333 -13 namecanvas \$0-preqiew;
#X obj 309 268 prepend \$0;
#X obj 336 125 s \$0-preq-dimen;
#X obj 405 68 \$3;
#X obj 441 67 \$4;
#X obj 406 100 pack 0 0;
#X obj 411 142 s \$0-gem-dimen;
#X obj 72 161 r \$0-preq-dimen;
#X obj 28 141 r \$0-gem-dimen;
#X obj 311 174 t b a;
#X obj 309 149 pack 0 0 0;
#X msg 336 219 \; \$1-preqiew obj 30 210 pix_share_write \$2 \$3 \$4
RGBA;
#N canvas 559 84 450 300 com 0;
#X obj 59 -50 shell;
#X obj 203 -129 netreceive 2222 1;
#X obj 201 -106 route /connect;
#X obj 224 -59 \$1;
#X obj 250 -59 \$2;
#X obj 202 57 netsend 1;
#X obj 52 -145 once;
#X obj 49 -170 inlet;
#X msg 246 13 connect localhost 2223;
#X obj 195 -58 \$0;
#X obj 201 -85 t b b b b;
#X obj 200 -34 pack 0 0 0;
#X msg 203 -6 send /dollarg \$1 \$2 \$3;
#X obj 92 -11 r \$0-create;
#X msg 83 42 send /create;
#X obj 13 -10 r \$0-destroy;
#X msg 1 42 send /destroy;
#X obj 54 -122 getdir;
#X obj 52 -102 makefilename %s/visor.pd;
#X msg 55 -83 pdextended -nogui \$1;
#X connect 1 0 2 0;
#X connect 2 0 10 0;
#X connect 3 0 11 1;
#X connect 4 0 11 2;
#X connect 6 0 17 0;
#X connect 7 0 6 0;
#X connect 8 0 5 0;
#X connect 9 0 11 0;
#X connect 10 0 9 0;
#X connect 10 1 3 0;
#X connect 10 2 4 0;
#X connect 10 3 8 0;
#X connect 11 0 12 0;
#X connect 12 0 5 0;
#X connect 13 0 14 0;
#X connect 14 0 5 0;
#X connect 15 0 16 0;
#X connect 16 0 5 0;
#X connect 17 0 18 0;
#X connect 18 0 19 0;
#X connect 19 0 0 0;
#X restore 469 68 pd com;
#X obj 334 40 t b b b b b b;
#X obj 309 231 delay 100;
#X obj 84 8 inlet;
#X obj 70 113 s \$0-create;
#X obj 140 113 s \$0-destroy;
#X msg 147 65 0;
#X msg 94 67 1;
#X msg 311 303 \; \$1-preqiew connect 5 0 29 0;
#X obj 83 38 route create destroy gem;
#X connect 0 0 4 0;
#X connect 0 0 17 1;
#X connect 1 0 4 1;
#X connect 1 0 17 2;
#X connect 2 0 20 0;
#X connect 3 0 17 0;
#X connect 4 0 9 0;
#X connect 6 0 18 0;
#X connect 8 0 27 0;
#X connect 10 0 12 0;
#X connect 11 0 12 1;
#X connect 12 0 13 0;
#X connect 14 0 5 1;
#X connect 15 0 5 0;
#X connect 16 0 21 0;
#X connect 16 1 6 0;
#X connect 17 0 16 0;
#X connect 20 0 3 0;
#X connect 20 1 0 0;
#X connect 20 2 1 0;
#X connect 20 3 10 0;
#X connect 20 4 11 0;
#X connect 20 5 19 0;
#X connect 21 0 8 0;
#X connect 22 0 28 0;
#X connect 25 0 5 2;
#X connect 26 0 5 2;
#X connect 28 0 23 0;
#X connect 28 0 26 0;
#X connect 28 1 24 0;
#X connect 28 1 25 0;
#X connect 28 2 5 0;
