#N canvas 345 104 450 300 10;
#X obj 203 61 gemwin;
#X obj 212 208 gemhead;
#X obj 213 229 pix_video;
#X obj 212 250 pix_texture;
#X msg 203 41 dimen 640 480 \, create \, 1;
#X obj 212 273 rectangle 5 4;
#X obj 178 58 bng 15 250 50 0 empty empty empty 17 7 0 10 -262144 -1
-1;
#X msg 166 141 reset;
#X obj 200 19 loadbang;
#X msg 88 146 destroy;
#X msg 89 117 create;
#X msg 266 108 destroy;
#X connect 1 0 2 0;
#X connect 2 0 3 0;
#X connect 3 0 5 0;
#X connect 4 0 0 0;
#X connect 6 0 0 0;
#X connect 7 0 0 0;
#X connect 8 0 4 0;
#X connect 11 0 0 0;
