#N canvas 324 53 640 443 10;
#X msg 155 119 connect localhost 2222;
#X obj 136 164 netsend 1;
#X msg 128 96 send /connect;
#X obj 133 69 t b b;
#X obj 133 50 loadbang;
#X obj 311 -2 netreceive 2223 1;
#X obj 317 145 gemwin;
#X msg 309 116 create \, 1;
#X obj 60 196 gemhead;
#X obj 57 248 pix_texture;
#X obj 56 271 rectangle 4 3;
#X msg 384 128 title preqiew;
#X obj 388 106 loadbang;
#X obj 312 -22 namecanvas \$0-visor;
#X obj 368 183 prepend \$0;
#X obj 314 92 t b a;
#X msg 314 70 dimen \$2 \$3;
#X obj 327 236 prepend \$0;
#X obj 291 298 prepend \$0;
#X obj 315 38 t a b b a;
#X obj 322 190 delay 10;
#X text 43 -55 This is another pd istances that share a GEMframebuffer
from the RAM;
#X obj 312 18 route /dollarg /create /destroy;
#X msg 498 62 destroy;
#X msg 409 45 create \, 1;
#N canvas 0 0 450 300 \$0-read 1;
#X obj 62 193 inlet;
#X obj 60 243 outlet;
#X restore 60 220 pd \$0-read;
#X msg 367 203 \; pd-\$1-read obj 60 220 pix_share_read \$2 \$3 \$4
RGBA;
#X msg 330 269 \; pd-\$1-read connect 0 0 2 0;
#X msg 292 324 \; pd-\$1-read connect 2 0 1 0;
#X connect 0 0 1 0;
#X connect 2 0 1 0;
#X connect 2 0 1 0;
#X connect 2 0 1 0;
#X connect 3 0 2 0;
#X connect 3 1 0 0;
#X connect 4 0 3 0;
#X connect 5 0 22 0;
#X connect 7 0 6 0;
#X connect 8 0 25 0;
#X connect 9 0 10 0;
#X connect 11 0 6 0;
#X connect 12 0 11 0;
#X connect 14 0 26 0;
#X connect 15 1 6 0;
#X connect 16 0 15 0;
#X connect 17 0 27 0;
#X connect 18 0 28 0;
#X connect 19 0 16 0;
#X connect 19 1 18 0;
#X connect 19 2 20 0;
#X connect 19 3 14 0;
#X connect 20 0 17 0;
#X connect 22 0 19 0;
#X connect 22 1 24 0;
#X connect 22 2 23 0;
#X connect 23 0 6 0;
#X connect 24 0 6 0;
#X connect 25 0 9 0;
