#N canvas 0 84 1366 684 10;
#X declare -path utils/pdmtl;
#X declare -lib py;
#X declare -lib py;
#X declare -path patches/gui/mediagrid/;
#X declare -lib sfruit;
#X declare -lib moocow;
#X declare -lib tof;
#X declare -path ../../utils/pdmtl;
#X declare -path patches/gui/mediagrid/;
#X obj 614 349 image images/guigrigia.gif;
#N canvas 195 72 814 465 modules 0;
#N canvas 0 0 266 230 clock 0;
#N canvas 270 46 739 200 master 0;
#X floatatom 45 123 5 0 0 0 - - -;
#N canvas 343 157 463 273 bpm 0;
#X obj 55 89 expr (60000/$f1);
#X obj 55 113 / 1;
#X text 96 49 input in BPM;
#X obj 55 52 inlet;
#X floatatom 85 139 5 0 0 0 - - metro;
#X floatatom 322 50 5 0 0 0 - - -;
#X obj 53 167 s metro;
#X floatatom 34 140 5 0 0 0 - - -;
#X connect 0 0 1 0;
#X connect 1 0 4 0;
#X connect 1 0 6 0;
#X connect 3 0 0 0;
#X connect 5 0 0 0;
#X connect 7 0 6 0;
#X restore 45 146 pd bpm converter;
#N canvas 0 25 450 300 slider 0;
#X msg 54 191 label \$1;
#X obj 214 131 inlet;
#X obj 52 220 s bpm_canvas;
#X obj 56 154 makefilename %d;
#X connect 0 0 2 0;
#X connect 3 0 0 0;
#X restore 45 173 pd slider bpm canvas;
#X obj 235 53 metro 100;
#X obj 296 23 r metro;
#X obj 218 2 loadbang;
#X msg 204 26 1;
#X obj 232 100 s master_clock;
#X msg 166 32 180;
#X obj 41 49 r master_clock_slider;
#X obj 184 184 s master_clock_slider_receive;
#X connect 0 0 1 0;
#X connect 0 0 2 0;
#X connect 3 0 7 0;
#X connect 4 0 3 1;
#X connect 5 0 6 0;
#X connect 5 0 8 0;
#X connect 6 0 3 0;
#X connect 8 0 10 0;
#X connect 9 0 0 0;
#X restore 19 45 pd master;
#N canvas 0 0 450 300 manual 0;
#X obj 99 24 bng 15 250 50 0 empty manual_clock empty 17 7 0 10 -262144
-1 -1;
#X obj 67 167 s master_clock;
#X connect 0 0 1 0;
#X restore 19 73 pd manual;
#N canvas 0 0 450 300 half 0;
#X obj 161 85 r metro;
#X obj 114 135 metro 100;
#X obj 108 210 s half_clock;
#X obj 102 33 loadbang;
#X msg 109 67 1;
#X obj 161 108 * 2;
#X connect 0 0 5 0;
#X connect 1 0 2 0;
#X connect 3 0 4 0;
#X connect 4 0 1 0;
#X connect 5 0 1 1;
#X restore 18 102 pd half;
#N canvas 0 0 450 300 quarter 0;
#X obj 70 187 metro 100;
#X obj 124 116 r metro;
#X obj 52 47 loadbang;
#X msg 55 86 1;
#X obj 72 219 s quarter_clock;
#X obj 124 142 * 4;
#X connect 0 0 4 0;
#X connect 1 0 5 0;
#X connect 2 0 3 0;
#X connect 3 0 0 0;
#X connect 5 0 0 1;
#X restore 18 132 pd quarter;
#N canvas 0 0 450 300 tap 0;
#X obj 160 199 timer;
#X obj 133 117 demux;
#X msg 225 72 1;
#X obj 133 167 t b b;
#X msg 270 72 0;
#X obj 188 168 t b b b;
#X obj 160 227 expr 60000/$f1;
#X obj 136 42 r gui-tap-tempo;
#X text 263 40 thanks to James dunn for this;
#X obj 160 250 / 1;
#X floatatom 253 265 5 0 0 0 - - -;
#X obj 167 277 s master_clock_slider_rcv;
#X connect 0 0 6 0;
#X connect 1 0 3 0;
#X connect 1 1 5 0;
#X connect 2 0 1 1;
#X connect 3 0 2 0;
#X connect 3 1 0 0;
#X connect 4 0 1 1;
#X connect 5 0 1 0;
#X connect 5 1 4 0;
#X connect 5 2 0 1;
#X connect 6 0 9 0;
#X connect 7 0 1 0;
#X connect 9 0 10 0;
#X connect 9 0 11 0;
#X restore 187 179 pd tap tempo;
#X restore 393 147 pd clock;
#N canvas 0 300 450 300 keyboard 0;
#N canvas 117 24 797 511 videogrid_shortcuts 0;
#X obj 73 31 key;
#X floatatom 73 69 5 0 0 0 - - -;
#X obj 74 85 sel 113 119 101 114 114 116 121 117 105 111 112;
#X obj 71 125 s 2videogrid;
#X msg 71 109 seek 0;
#X obj 92 162 s 2videogrid;
#X msg 92 146 seek 1;
#X obj 125 197 s 2videogrid;
#X obj 146 234 s 2videogrid;
#X obj 154 137 s 2videogrid;
#X obj 175 174 s 2videogrid;
#X obj 208 209 s 2videogrid;
#X obj 229 246 s 2videogrid;
#X obj 267 147 s 2videogrid;
#X obj 288 184 s 2videogrid;
#X obj 311 240 s 2videogrid;
#X msg 125 181 seek 2;
#X msg 146 218 seek 3;
#X msg 154 121 seek 4;
#X msg 175 158 seek 4;
#X msg 208 193 seek 5;
#X msg 229 230 seek 6;
#X msg 267 131 seek 7;
#X msg 288 168 seek 8;
#X msg 311 224 seek 9;
#X obj 94 414 sel 97 115 100 102 103 104 106 107 108;
#X obj 92 480 s 2videogrid;
#X obj 113 517 s 2videogrid;
#X obj 146 552 s 2videogrid;
#X obj 167 589 s 2videogrid;
#X obj 175 492 s 2videogrid;
#X obj 196 529 s 2videogrid;
#X obj 229 564 s 2videogrid;
#X obj 250 601 s 2videogrid;
#X obj 288 502 s 2videogrid;
#X msg 92 464 seek 10;
#X msg 113 501 seek 11;
#X msg 146 536 seek 12;
#X msg 167 573 seek 13;
#X msg 175 476 seek 14;
#X msg 196 513 seek 15;
#X msg 229 548 seek 16;
#X msg 250 585 seek 17;
#X msg 288 486 seek 18;
#X obj 377 480 s 2videogrid;
#X obj 398 517 s 2videogrid;
#X obj 431 552 s 2videogrid;
#X obj 452 589 s 2videogrid;
#X obj 460 492 s 2videogrid;
#X obj 481 529 s 2videogrid;
#X obj 514 564 s 2videogrid;
#X obj 535 601 s 2videogrid;
#X obj 379 414 sel 122 120 99 118 98 110 109;
#X msg 377 464 seek 19;
#X msg 398 501 seek 20;
#X msg 431 536 seek 21;
#X msg 452 573 seek 22;
#X msg 460 476 seek 23;
#X msg 481 513 seek 24;
#X msg 514 548 seek 25;
#X msg 535 585 seek 26;
#X connect 0 0 1 0;
#X connect 1 0 2 0;
#X connect 1 0 25 0;
#X connect 1 0 52 0;
#X connect 2 0 4 0;
#X connect 2 1 6 0;
#X connect 2 2 16 0;
#X connect 2 3 17 0;
#X connect 2 4 18 0;
#X connect 2 5 19 0;
#X connect 2 6 20 0;
#X connect 2 7 21 0;
#X connect 2 8 22 0;
#X connect 2 9 23 0;
#X connect 2 10 24 0;
#X connect 4 0 3 0;
#X connect 6 0 5 0;
#X connect 16 0 7 0;
#X connect 17 0 8 0;
#X connect 18 0 9 0;
#X connect 19 0 10 0;
#X connect 20 0 11 0;
#X connect 21 0 12 0;
#X connect 22 0 13 0;
#X connect 23 0 14 0;
#X connect 24 0 15 0;
#X connect 25 0 35 0;
#X connect 25 1 36 0;
#X connect 25 2 37 0;
#X connect 25 3 38 0;
#X connect 25 4 39 0;
#X connect 25 5 40 0;
#X connect 25 6 41 0;
#X connect 25 7 42 0;
#X connect 25 8 43 0;
#X connect 35 0 26 0;
#X connect 36 0 27 0;
#X connect 37 0 28 0;
#X connect 38 0 29 0;
#X connect 39 0 30 0;
#X connect 40 0 31 0;
#X connect 41 0 32 0;
#X connect 42 0 33 0;
#X connect 43 0 34 0;
#X connect 52 0 53 0;
#X connect 52 1 54 0;
#X connect 52 2 55 0;
#X connect 52 3 56 0;
#X connect 52 4 57 0;
#X connect 52 5 58 0;
#X connect 52 6 59 0;
#X connect 53 0 44 0;
#X connect 54 0 45 0;
#X connect 55 0 46 0;
#X connect 56 0 47 0;
#X connect 57 0 48 0;
#X connect 58 0 49 0;
#X connect 59 0 50 0;
#X connect 60 0 51 0;
#X restore 186 53 pd videogrid_shortcuts;
#N canvas 164 283 860 317 video_player_selection 0;
#X obj -227 -39 keyname;
#X obj -193 -15 sel F1 F2 F3 F4 F5 F6 F7;
#X obj 115 128 s mouse_ch;
#X msg 119 98 0;
#X msg 145 99 1;
#X msg 174 97 2;
#X obj -118 163 s router_find_id;
#X msg -163 55 0;
#X msg -135 55 1;
#X msg -101 55 2;
#X obj -209 201 symbol;
#X obj -207 181 l2s;
#N canvas 574 300 450 300 change_canvas_unselect 0;
#X obj 158 -92 unpack 0 0;
#X obj 224 -41 s router_find_id;
#X obj 172 -18 s router_find_id;
#X obj 199 -63 t b f;
#X obj 146 -60 t b f;
#X obj 180 25 patches/router/findId;
#X obj 160 -126 r gui-canvas-unselect;
#X msg 185 49 \; \$1-gui-canvas color -9.86895e+06 0;
#X msg 54 64 0;
#X msg 156 86 \; \$1-text-key-mouse 0;
#X connect 0 0 4 0;
#X connect 0 1 3 0;
#X connect 3 0 5 0;
#X connect 3 1 1 0;
#X connect 4 0 5 0;
#X connect 4 1 2 0;
#X connect 5 0 7 0;
#X connect 5 0 9 0;
#X connect 6 0 0 0;
#X restore 68 202 pd change_canvas_unselect;
#X obj -209 232 patches/router/send_msg key-selection;
#X connect 0 1 1 0;
#X connect 1 0 7 0;
#X connect 1 1 8 0;
#X connect 1 2 9 0;
#X connect 1 4 3 0;
#X connect 1 5 4 0;
#X connect 1 6 5 0;
#X connect 3 0 2 0;
#X connect 4 0 2 0;
#X connect 5 0 2 0;
#X connect 7 0 11 0;
#X connect 7 0 6 0;
#X connect 8 0 11 0;
#X connect 8 0 6 0;
#X connect 9 0 11 0;
#X connect 9 0 6 0;
#X connect 10 0 13 0;
#X connect 11 0 10 0;
#X restore 184 72 pd video_player_selection;
#N canvas 414 207 450 300 sequencer_shorcut 0;
#X obj 99 2 key;
#X floatatom 100 30 5 0 0 0 - - -;
#X msg 159 170 1;
#X msg 182 187 2;
#X msg 208 208 3;
#X msg 231 225 4;
#X msg 262 242 5;
#X msg 285 258 6;
#X msg 311 280 7;
#X msg 320 300 8;
#X obj 105 293 s keybank;
#X obj 106 274 - 1;
#X obj 74 112 bng 15 250 50 0 empty empty empty 17 7 0 10 -262144 -1
-1;
#X msg 311 99 1;
#X msg 340 93 0;
#X obj 74 142 s key-sequencer-activate;
#X obj 320 120 s key-sequencer-record;
#X obj 100 57 sel 44 27 49 50 51 52 53 54 55 56 46;
#X connect 0 0 1 0;
#X connect 1 0 17 0;
#X connect 2 0 11 0;
#X connect 3 0 11 0;
#X connect 4 0 11 0;
#X connect 5 0 11 0;
#X connect 6 0 11 0;
#X connect 7 0 11 0;
#X connect 8 0 11 0;
#X connect 9 0 11 0;
#X connect 11 0 10 0;
#X connect 13 0 16 0;
#X connect 14 0 16 0;
#X connect 17 0 13 0;
#X connect 17 1 12 0;
#X connect 17 1 15 0;
#X connect 17 2 2 0;
#X connect 17 3 3 0;
#X connect 17 4 4 0;
#X connect 17 5 5 0;
#X connect 17 6 6 0;
#X connect 17 7 7 0;
#X connect 17 8 8 0;
#X connect 17 9 9 0;
#X connect 17 10 14 0;
#X restore 180 92 pd sequencer_shorcut;
#N canvas 0 0 450 300 manual_clock 0;
#X obj 46 72 sel 32;
#X obj 40 40 key 32;
#X obj 51 137 s manual_clock_rcv;
#X connect 0 0 2 0;
#X connect 1 0 0 0;
#X restore 193 126 pd manual_clock;
#X restore 314 146 pd keyboard;
#N canvas 223 177 450 300 MediaGrid 0;
#N canvas 61 135 450 408 videogrid_router 0;
#X obj 207 164 s fromvideogrid_router;
#X obj 207 67 r fromvideogrid;
#X obj 174 106 gate 2;
#X msg 150 65 1;
#X obj 152 -7 loadbang;
#X obj 182 19 r videogrid_switch;
#X text 234 107 to videoplayer or to savefile;
#X obj 24 103 r select_video_channel;
#X text 327 367 to video sequencer;
#X obj 163 231 patches/router/send_msg video-open;
#X connect 1 0 2 1;
#X connect 2 0 9 0;
#X connect 2 1 0 0;
#X connect 3 0 2 0;
#X connect 4 0 3 0;
#X connect 5 0 2 0;
#X restore 62 141 pd videogrid_router;
#X restore 316 186 pd MediaGrid;
#N canvas 0 0 450 300 Audio 0;
#X obj 108 85 patches/audio/pAudio;
#X restore 255 146 pd Audio;
#N canvas 0 0 450 300 output 0;
#X obj 141 192 patches/output/preQiew/preqiew 320 240 320 240;
#X obj 50 90 bng 15 250 50 0 empty empty empty 17 7 0 10 -262144 -1
-1;
#X obj 54 145 r preview;
#X obj 86 96 r preview-gem;
#X msg 114 118 gem \$1 \$2;
#X obj 205 110 gems.win;
#X obj 197 78 r win-open;
#X connect 2 0 0 0;
#X connect 3 0 4 0;
#X connect 4 0 0 0;
#X connect 6 0 5 0;
#X restore 331 268 pd output;
#X obj 280 37 declare -path utils/pdmtl;
#N canvas 103 25 704 505 move-gui 0;
#X obj 63 190 patches/router/send_msg video-translate-x;
#X obj -32 58 r gui-translate-x;
#X obj 63 171 l2s;
#X obj 60 147 autoscale;
#X obj 46 115 t b f;
#X obj 45 75 r win-autoscale-x;
#X obj 46 93 unpack -5 5;
#X obj 100 328 l2s;
#X obj 97 304 autoscale;
#X obj 83 272 t b f;
#X obj 83 250 unpack -5 5;
#X obj 82 232 r win-autoscale-y;
#X obj 5 215 r gui-translate-y;
#X obj 100 347 patches/router/send_msg video-translate-y;
#X obj 286 53 r gui-translate-reset;
#X obj 285 100 unpack 0 0 0;
#X obj 289 129 s gui-translate-x-rcv;
#X obj 303 153 s gui-translate-y-rcv;
#X obj 317 176 s gui-translate-z-rcv;
#X obj 89 487 l2s;
#X obj 73 438 t b f;
#X obj 73 416 unpack -5 5;
#X obj 35 378 r gui-translate-z;
#X obj 72 398 r win-autoscale-z;
#X obj 90 513 patches/router/send_msg video-translate-z;
#X obj 87 470 autoscale -5 3;
#X msg 285 75 0.5 0.5 0.65;
#X obj 428 291 l2s;
#X obj 429 269 r gui-rotate-x;
#X obj 428 312 patches/router/send_msg video-rotate-x;
#X obj 428 359 l2s;
#X obj 429 337 r gui-rotate-y;
#X obj 428 380 patches/router/send_msg video-rotate-y;
#X obj 430 427 l2s;
#X obj 431 405 r gui-rotate-z;
#X obj 430 448 patches/router/send_msg video-rotate-z;
#X obj 468 115 unpack 0 0 0;
#X obj 469 68 r gui-rotate-reset;
#X msg 468 90 0 0 0;
#X obj 472 144 s gui-rotate-x-rcv;
#X obj 486 168 s gui-rotate-y-rcv;
#X obj 500 191 s gui-rotate-z-rcv;
#X connect 1 0 3 0;
#X connect 2 0 0 0;
#X connect 3 0 2 0;
#X connect 4 0 3 3;
#X connect 4 1 3 1;
#X connect 5 0 6 0;
#X connect 6 0 4 0;
#X connect 6 1 3 2;
#X connect 7 0 13 0;
#X connect 8 0 7 0;
#X connect 9 0 8 3;
#X connect 9 1 8 1;
#X connect 10 0 9 0;
#X connect 10 1 8 2;
#X connect 11 0 10 0;
#X connect 12 0 8 0;
#X connect 14 0 26 0;
#X connect 15 0 16 0;
#X connect 15 1 17 0;
#X connect 15 2 18 0;
#X connect 19 0 24 0;
#X connect 20 0 25 3;
#X connect 20 1 25 1;
#X connect 21 0 20 0;
#X connect 21 1 25 2;
#X connect 22 0 25 0;
#X connect 23 0 21 0;
#X connect 25 0 19 0;
#X connect 26 0 15 0;
#X connect 27 0 29 0;
#X connect 28 0 27 0;
#X connect 30 0 32 0;
#X connect 31 0 30 0;
#X connect 33 0 35 0;
#X connect 34 0 33 0;
#X connect 36 0 39 0;
#X connect 36 1 40 0;
#X connect 36 2 41 0;
#X connect 37 0 38 0;
#X connect 38 0 36 0;
#X restore 321 227 pd move-gui;
#N canvas 0 0 450 300 mouse 0;
#X obj 139 110 gems.mouse;
#X obj 120 164 s mouse-cord;
#X obj 233 163 s mouse-click;
#X connect 0 0 1 0;
#X connect 0 1 2 0;
#X restore 459 148 pd mouse;
#N canvas 488 152 450 300 formattext 0;
#X obj 158 135 utils/formattext;
#X obj 162 79 r text-formattext;
#X obj 161 101 t a a;
#X obj 163 207 pack s f;
#X msg 151 240 \; \$2-text-formatted \$1;
#X obj 228 115 unpack s f;
#X connect 0 0 3 0;
#X connect 1 0 2 0;
#X connect 2 0 0 0;
#X connect 2 1 5 0;
#X connect 3 0 4 0;
#X connect 5 1 3 1;
#X restore 345 88 pd formattext;
#N canvas 367 24 450 300 cam-info 0;
#X obj 173 75 utils/cam-info;
#X obj 168 12 r cam-info;
#X obj 173 50 t b f;
#X msg 161 161 \; \$2-cam-device-info \$1;
#X obj 162 129 pack s 0;
#X connect 0 0 4 0;
#X connect 1 0 2 0;
#X connect 2 0 0 0;
#X connect 2 1 4 1;
#X connect 4 0 3 0;
#X restore 274 66 pd cam-info;
#N canvas 108 271 463 445 screeninfo 0;
#X obj 140 99 t b f;
#N canvas 355 130 603 466 screenInstructions 0;
#X msg 499 51 \; win-offset 0 0;
#X msg 473 95 \; win-border 1;
#X msg 208 262 \; win-border 0;
#X obj 207 3 inlet;
#X obj 157 3 inlet;
#X obj 282 89 expr 1-$f1;
#X obj 187 110 spigot;
#X obj 252 110 spigot;
#X msg 425 141 \; win-dimen 320 240;
#X obj 456 20 t b b b;
#X obj 208 156 t b a a;
#X msg 233 341 \; win-dimen \$3 \$4;
#X obj 455 -36 inlet;
#X msg 420 229 \; win-offset 0 0;
#X msg 346 319 \; win-dimen \$1 \$2;
#X obj 377 198 t a b b;
#X msg 394 273 \; win-border 0;
#X msg 226 197 \; win-offset \$1 0;
#X connect 3 0 5 0;
#X connect 3 0 6 1;
#X connect 4 0 7 0;
#X connect 4 0 6 0;
#X connect 5 0 7 1;
#X connect 6 0 10 0;
#X connect 7 0 15 0;
#X connect 9 0 8 0;
#X connect 9 1 1 0;
#X connect 9 2 0 0;
#X connect 10 0 2 0;
#X connect 10 1 17 0;
#X connect 10 2 11 0;
#X connect 12 0 9 0;
#X connect 15 0 14 0;
#X connect 15 1 16 0;
#X connect 15 2 13 0;
#X restore 210 334 pd screenInstructions;
#X obj 201 14 r win-fullscreen;
#X obj 202 34 sel 1;
#X obj 80 181 unpack f f f f;
#X obj 70 239 f;
#X obj 114 314 pack 0 0 0 0;
#X obj 70 58 pyext utils screeninfo;
#X obj 166 364 print;
#X obj 169 38 bng 15 250 50 0 empty empty empty 17 7 0 10 -262144 -1
-1;
#X connect 0 0 5 0;
#X connect 0 1 1 1;
#X connect 2 0 3 0;
#X connect 3 0 7 1;
#X connect 3 1 1 2;
#X connect 4 0 5 1;
#X connect 4 1 6 1;
#X connect 4 2 6 2;
#X connect 4 3 6 3;
#X connect 5 0 6 0;
#X connect 6 0 1 0;
#X connect 6 0 8 0;
#X connect 7 0 4 0;
#X connect 7 1 0 0;
#X connect 9 0 7 1;
#X restore 347 65 pd screeninfo;
#N canvas 148 24 876 511 textpages 0;
#X obj 125 147 utils/loadfonts;
#X obj 113 97 bng 15 250 50 0 empty empty empty 17 7 0 10 -262144 -1
-1;
#X msg 27 201 write /tmp/fonts/fonts.coll;
#X msg 46 166 clear;
#X obj 103 126 t b b;
#X obj 14 133 t b b b;
#X obj 232 168 unpack f s;
#X obj 233 187 / 30;
#X obj 232 206 i;
#X obj 233 225 + 1;
#X obj 217 253 f;
#X text 242 253 number of pages;
#X obj 203 22 r text-pages;
#X obj 211 307 pack f f;
#X msg 234 353 \; \$2-text-hradio-number number \$1;
#X obj 212 116 t b f f;
#X obj 135 369 pack s f;
#X msg 128 395 \; \$2-text-font-popup-rcv append \$1;
#X obj 458 48 r text-font-list;
#X obj 457 71 unpack f f f;
#X text 269 310 questo manda il numero di pagine torali a hradio del
text player;
#X obj 486 155 until;
#X obj 487 184 counter 0 256;
#X msg 547 95 max \$1;
#X msg 499 98 min \$1;
#X msg 481 127 30;
#X text 14 85 questo inizializzo il font.coll ovvero il contenitore
delle font;
#X obj 456 91 t b f;
#X obj 81 48 bng 15 250 50 0 empty empty empty 17 7 0 10 -262144 -1
-1;
#X obj 14 111 loadbang;
#X obj -10 309 coll;
#C restore;
#X obj 92 173 del 1000;
#X connect 0 0 6 0;
#X connect 0 0 30 0;
#X connect 1 0 4 0;
#X connect 2 0 30 0;
#X connect 3 0 30 0;
#X connect 4 0 31 0;
#X connect 4 1 0 0;
#X connect 5 0 1 0;
#X connect 5 2 3 0;
#X connect 6 0 7 0;
#X connect 7 0 8 0;
#X connect 8 0 9 0;
#X connect 9 0 10 1;
#X connect 10 0 13 0;
#X connect 12 0 15 0;
#X connect 13 0 14 0;
#X connect 15 0 10 0;
#X connect 15 1 13 1;
#X connect 16 0 17 0;
#X connect 18 0 19 0;
#X connect 19 0 27 0;
#X connect 19 1 24 0;
#X connect 19 2 23 0;
#X connect 21 0 22 0;
#X connect 22 0 30 0;
#X connect 23 0 22 0;
#X connect 24 0 22 0;
#X connect 25 0 21 0;
#X connect 27 0 25 0;
#X connect 27 1 16 1;
#X connect 28 0 5 0;
#X connect 29 0 5 0;
#X connect 30 0 16 0;
#X connect 31 0 2 0;
#X restore 266 90 pd textpages;
#X restore 804 682 pd modules;
#N canvas 0 0 215 267 engine 0;
#X obj 56 15 r lauch;
#X obj 59 46 s pd-gemQ.pd;
#X obj -12 171 shell;
#X msg -12 147 killall -9 pdextended;
#X obj 11 99 r close;
#X connect 0 0 1 0;
#X connect 3 0 2 0;
#X connect 4 0 3 0;
#X restore 804 705 pd engine;
#N canvas 140 38 590 514 (subpatch) 0;
#X obj 1 2 cnv 15 132 25 empty configuration_tab3 empty 20 12 0 14
-1 -262144 0;
#X obj 25 85 image images/audiotab.gif;
#X obj 103 9 bng 8 250 50 0 empty empty AUDIO -53 6 0 10 -99865 -191407
-258113;
#X text 253 310 create new one;
#X obj 95 230 t b b;
#X text 413 260 destroy existent;
#N canvas 0 25 573 358 tab_canvas 0;
#X obj 237 65 inlet;
#N canvas 21 259 606 448 RGB_____________ 0;
#X obj 233 133 inlet;
#X obj 262 53 inlet;
#X obj 339 55 inlet;
#X obj 405 56 inlet;
#X obj 249 385 outlet;
#X text 267 28 red;
#X text 337 30 green;
#X text 409 30 blue;
#X obj 405 102 t b f;
#X obj 339 160 +;
#X obj 339 185 t b f;
#X obj 339 216 +;
#X obj 296 385 outlet;
#X obj 296 361 f;
#X obj 249 361 f;
#X obj 262 79 * -65536;
#X obj 339 80 * -256;
#X obj 405 80 * -1;
#X obj 339 247 - 1;
#X obj 235 168 t b b b;
#X connect 0 0 19 0;
#X connect 1 0 15 0;
#X connect 2 0 16 0;
#X connect 3 0 17 0;
#X connect 8 0 9 0;
#X connect 8 1 9 1;
#X connect 9 0 10 0;
#X connect 10 0 11 0;
#X connect 10 1 11 1;
#X connect 11 0 18 0;
#X connect 13 0 12 0;
#X connect 14 0 4 0;
#X connect 15 0 11 0;
#X connect 16 0 9 0;
#X connect 17 0 8 0;
#X connect 18 0 14 1;
#X connect 19 0 14 0;
#X connect 19 1 13 0;
#X connect 19 2 18 0;
#X restore 238 248 pd RGB_____________;
#X text 280 199 red;
#X text 316 198 green;
#X text 364 198 blue;
#X obj 247 281 pack 0 0;
#X obj 239 184 t b b b b;
#X obj 247 411 t b b b;
#X obj 330 398 bng 15 250 50 0 empty empty empty 0 -6 0 10 -262144
-1 -1;
#X obj 295 155 bng 15 250 50 0 empty empty empty 0 -6 0 10 -262144
-1 -1;
#X msg 297 337 \; configuration_tab3 color \$1 \$2;
#X msg 275 222 202;
#X msg 312 224 204;
#X msg 349 223 201;
#X msg 267 437 \; configuration_tab2 color 22;
#X msg 248 471 \; configuration_tab1 color 22;
#X connect 0 0 6 0;
#X connect 1 0 5 0;
#X connect 1 1 5 1;
#X connect 5 0 10 0;
#X connect 5 0 7 0;
#X connect 6 0 1 0;
#X connect 6 1 11 0;
#X connect 6 2 12 0;
#X connect 6 3 13 0;
#X connect 7 0 15 0;
#X connect 7 1 14 0;
#X connect 9 0 6 0;
#X connect 11 0 1 1;
#X connect 12 0 1 2;
#X connect 13 0 1 3;
#X restore 378 168 pd tab_canvas;
#X msg 130 261 editmode 1 \, mouse 915 357 0 0 \, cut \, editmode 0
;
#X obj 66 494 s pd-gemQ.pd;
#X msg 49 309 obj 883 357 patches/gui/audio_gui;
#X connect 2 0 4 0;
#X connect 2 0 6 0;
#X connect 4 0 9 0;
#X connect 4 1 7 0;
#X connect 7 0 8 0;
#X connect 9 0 8 0;
#X coords 0 1 100 -1 134 28 1 0 0;
#X restore 1069 328 graph;
#X obj 605 377 bng 10 250 50 0 manual_clock manual_clock_rcv empty
0 -6 0 10 -1 -99865 -1;
#X obj 792 681 cnv 15 100 45 empty empty empty 20 12 0 14 -1 -66577
0;
#X obj -4 -3 patches/gui/launcher 1;
#X obj -4 211 patches/gui/launcher 2;
#X obj -2 431 patches/gui/launcher 3;
#X obj 689 341 hsl 100 8 0 1 0 0 gui-translate-x gui-translate-x-rcv
X 90 4 0 8 -1 -258113 -258113 0 1;
#N canvas 47 71 590 514 (subpatch) 0;
#X obj 1 2 cnv 10 90 23 empty configuration_tab2 empty 20 12 0 14 -208115
-262144 0;
#X obj 80 6 bng 8 250 50 0 empty empty OUTPUT -60 6 0 10 -99865 -191407
-258113;
#N canvas 225 87 573 358 tab_canvas 0;
#X obj 237 65 inlet;
#N canvas 21 259 606 448 RGB_____________ 0;
#X obj 233 133 inlet;
#X obj 262 53 inlet;
#X obj 339 55 inlet;
#X obj 405 56 inlet;
#X obj 249 385 outlet;
#X text 267 28 red;
#X text 337 30 green;
#X text 409 30 blue;
#X obj 405 102 t b f;
#X obj 339 160 +;
#X obj 339 185 t b f;
#X obj 339 216 +;
#X obj 296 385 outlet;
#X obj 296 361 f;
#X obj 249 361 f;
#X obj 262 79 * -65536;
#X obj 339 80 * -256;
#X obj 405 80 * -1;
#X obj 339 247 - 1;
#X obj 235 168 t b b b;
#X connect 0 0 19 0;
#X connect 1 0 15 0;
#X connect 2 0 16 0;
#X connect 3 0 17 0;
#X connect 8 0 9 0;
#X connect 8 1 9 1;
#X connect 9 0 10 0;
#X connect 10 0 11 0;
#X connect 10 1 11 1;
#X connect 11 0 18 0;
#X connect 13 0 12 0;
#X connect 14 0 4 0;
#X connect 15 0 11 0;
#X connect 16 0 9 0;
#X connect 17 0 8 0;
#X connect 18 0 14 1;
#X connect 19 0 14 0;
#X connect 19 1 13 0;
#X connect 19 2 18 0;
#X restore 238 248 pd RGB_____________;
#X text 280 199 red;
#X text 316 198 green;
#X text 364 198 blue;
#X obj 247 281 pack 0 0;
#X obj 239 184 t b b b b;
#X obj 247 411 t b b b;
#X obj 330 398 bng 15 250 50 0 empty empty empty 0 -6 0 10 -262144
-1 -1;
#X obj 295 155 bng 15 250 50 0 empty empty empty 0 -6 0 10 -262144
-1 -1;
#X msg 297 338 \; configuration_tab2 color \$1 \$2;
#X msg 267 437 \; configuration_tab1 color -4.47444e+06 0;
#X msg 348 219 201;
#X msg 275 222 202;
#X msg 312 224 204;
#X msg 248 471 \; configuration_tab3 color 22;
#X connect 0 0 6 0;
#X connect 1 0 5 0;
#X connect 1 1 5 1;
#X connect 5 0 10 0;
#X connect 5 0 7 0;
#X connect 6 0 1 0;
#X connect 6 1 13 0;
#X connect 6 2 14 0;
#X connect 6 3 12 0;
#X connect 7 0 15 0;
#X connect 7 1 11 0;
#X connect 9 0 6 0;
#X connect 12 0 1 3;
#X connect 13 0 1 1;
#X connect 14 0 1 2;
#X restore 379 168 pd tab_canvas;
#X obj 54 175 t b b;
#X text 372 205 destroy existent;
#X msg 89 206 editmode 1 \, mouse 915 357 0 0 \, cut \, editmode 0
;
#X obj 25 439 s pd-gemQ.pd;
#X msg 28 270 obj 883 357 patches/gui/output;
#X connect 1 0 2 0;
#X connect 1 0 3 0;
#X connect 3 0 7 0;
#X connect 3 1 5 0;
#X connect 5 0 6 0;
#X connect 7 0 6 0;
#X coords 0 1 100 -1 92 27 1 0 0;
#X restore 976 328 graph;
#X obj 689 350 hsl 100 8 0 1 0 0 gui-translate-y gui-translate-y-rcv
Y 90 4 0 8 -1 -258113 -258113 0 1;
#X obj 819 349 bng 10 250 50 0 gui-translate-reset empty empty 17 7
0 10 -1 -99865 -1;
#X obj 689 359 hsl 100 8 0 1 0 0 gui-translate-z gui-translate-z-rcv
Z 90 4 0 8 -1 -258113 -258113 0 1;
#X obj 690 386 hsl 100 8 0 360 0 0 gui-rotate-x gui-rotate-x-rcv X
90 4 0 8 -1 -258113 -258113 0 1;
#X obj 690 395 hsl 100 8 0 360 0 0 gui-rotate-y gui-rotate-y-rcv Y
90 4 0 8 -1 -258113 -258113 0 1;
#X obj 690 404 hsl 100 8 0 360 0 0 gui-rotate-z gui-rotate-z-rcv Z
90 4 0 8 -1 -258113 -258113 0 1;
#X obj 819 391 bng 10 250 50 0 gui-rotate-reset empty empty 17 7 0
10 -1 -99865 -1;
#X obj 596 335 nbx 3 14 20 280 0 0 master_clock_slider master_clock_slider_rcv
empty 0 -8 0 8 -1 -228856 -1 20 256;
#X obj 533 378 bng 28 250 50 0 gui-tap-tempo empty empty 17 7 0 10
-1 -258113 -1;
#N canvas 1 89 798 413 (subpatch) 1;
#X obj 2 2 patches/gui/mediagrid/mediagrid 6 5;
#X obj 604 25 bng 15 250 50 0 empty empty empty 17 7 0 10 -262144 -1
-1;
#X obj 519 75 t b;
#X msg 518 115 putdir \$1;
#X obj 484 203 t b;
#X msg 483 243 putvideo \$1;
#X obj 484 220 openpanel;
#X text 424 27 D;
#X text 424 38 I;
#X text 424 27 D;
#X text 424 38 I;
#X text 422 171 I;
#X text 422 171 I;
#X text 422 160 S;
#X text 422 184 N;
#X text 422 197 G;
#X text 424 210 L;
#X text 424 223 E;
#X obj 625 23 r 2videogrid;
#X obj 17 309 s fromvideogrid;
#X obj 625 43 route seek;
#X floatatom 644 114 5 0 0 0 - - -;
#X obj 624 63 + 1;
#X obj 421 62 bng 15 250 50 0 empty empty empty 17 7 0 10 -262144 -1
-1;
#X obj 419 241 bng 15 250 50 0 empty empty empty 17 7 0 10 -262144
-1 -1;
#X obj 674 201 closebang;
#X obj 645 239 print;
#X msg 605 276 \; pd-gemQ.pd menusave;
#X obj 434 328 folder_list;
#X obj 528 344 tof/folderpanel;
#X obj 519 92 tof/folderpanel;
#X connect 0 0 19 0;
#X connect 2 0 30 0;
#X connect 3 0 0 0;
#X connect 4 0 6 0;
#X connect 5 0 0 0;
#X connect 6 0 5 0;
#X connect 18 0 20 0;
#X connect 20 0 22 0;
#X connect 21 0 0 0;
#X connect 22 0 21 0;
#X connect 23 0 2 0;
#X connect 24 0 4 0;
#X connect 25 0 26 0;
#X connect 30 0 3 0;
#X coords 0 1 100 -1 440 285 1 0 0;
#X restore 502 11 graph;
#X obj 1119 286 bng 13 250 50 0 close empty empty 30 7 0 10 -1 -258113
-258113;
#X obj 883 357 patches/gui/output;
#X obj 511 471 patches/sequencer/sequencer;
#X obj 2 35 patches/players/video 49;
