#N canvas 340 5 659 518 10;
#X text 219 15 launcher class;
#X obj 424 312 s router_launcher_id;
#X obj 176 551 s lauch;
#X obj 221 223 dollarg;
#X msg 99 67 name player_type;
#X obj 221 267 sel 1 2 3;
#X msg 414 227 set \$1;
#X msg 414 255 1;
#X obj 188 161 t a b;
#X obj 420 279 - 1;
#X obj 222 206 loadbang;
#X obj 182 340 pack s f f;
#X obj 223 244 t f f;
#X obj 317 269 sel 1 2 3;
#X msg 304 288 49;
#X msg 337 288 39;
#X msg 365 288 29;
#X obj 102 104 popup 124 25 grey90 player_type video text image cam
;
#X msg 181 424 obj 2 \$2 patches/players/\$1 \$3;
#X msg 241 286 250;
#X msg 269 286 470;
#X msg 208 286 35;
#X msg 206 397 editmode 1 \, mouse 2 \$2 0 0 \, cut \, editmode 0;
#X obj 181 371 t a a;
#X obj 272 112 loadbang;
#X msg 254 82 options video text image cam;
#X connect 3 0 6 0;
#X connect 3 0 12 0;
#X connect 4 0 17 0;
#X connect 5 0 21 0;
#X connect 5 1 19 0;
#X connect 5 2 20 0;
#X connect 6 0 7 0;
#X connect 7 0 9 0;
#X connect 8 0 11 0;
#X connect 8 1 7 0;
#X connect 9 0 1 0;
#X connect 10 0 3 0;
#X connect 11 0 23 0;
#X connect 12 0 5 0;
#X connect 12 1 13 0;
#X connect 13 0 14 0;
#X connect 13 1 15 0;
#X connect 13 2 16 0;
#X connect 14 0 11 2;
#X connect 15 0 11 2;
#X connect 16 0 11 2;
#X connect 17 1 8 0;
#X connect 18 0 2 0;
#X connect 19 0 11 1;
#X connect 20 0 11 1;
#X connect 21 0 11 1;
#X connect 22 0 2 0;
#X connect 23 0 18 0;
#X connect 23 1 22 0;
#X connect 25 0 17 0;
#X coords 0 -1 1 1 129 32 2 100 100;
