#N canvas 0 0 1009 501 10;
#X declare -path ../../utils/pdmtl;
#X declare -lib sfruit;
#X declare -lib moocow;
#X declare -lib tof;
#X declare -path patches/gui/mediagrid/;
#X obj 103 102 cnv 15 455 166 empty \$0-gui-canvas empty 20 12 0 14
-153958 -262144 0;
#X obj 331 184 image images/image.gif;
#X obj 514 132 vsl 16 80 0 1 0 0 \$0-video-alpha empty empty 0 -8 0
10 -1 -258113 -1 0 1;
#X obj 512 230 cnv 15 1 1 empty \$0-image-alpha-canvas 0/100 -5 10
1 9 -1 -162280 0;
#X obj 347 120 widget button b -bg grey -activebackground #005252 -text
invert -command .<.> -textvariable "" -width 4 @vis .- config;
#X obj 410 120 widget button b -bg grey -activebackground #005252 -text
color -command .<.> -textvariable "" -width 4 @vis .- config;
#X obj 369 232 bng 10 250 50 0 empty empty empty 0 -6 0 10 -99865 -1
-1;
#X obj 756 -23 cnv 15 370 150 empty empty GUI_element 20 12 0 14 -233017
-66577 0;
#X obj 756 157 cnv 15 370 380 empty empty ENGINE_ELEMENT 20 12 0 14
-233017 -66577 0;
#X obj 369 204 bng 10 250 50 0 empty empty empty 0 -6 0 10 -99865 -1
-1;
#N canvas 498 37 450 300 slider 0;
#X msg 179 212 label \$1;
#X obj 182 94 * 100;
#X obj 181 154 makefilename %d/100;
#X obj 181 68 r \$0-image-alpha;
#X obj 177 241 s \$0-image-alpha-canvas;
#X connect 0 0 4 0;
#X connect 1 0 2 0;
#X connect 2 0 0 0;
#X connect 3 0 1 0;
#X restore 761 28 pd slider alpha canvas;
#X text 920 30 alpha slider and text gui element;
#N canvas 506 130 428 470 change_color_canvas 0;
#N canvas 21 259 606 448 RGB_____________ 0;
#X obj 233 133 inlet;
#X obj 262 53 inlet;
#X obj 339 55 inlet;
#X obj 405 56 inlet;
#X obj 249 385 outlet;
#X text 267 28 red;
#X text 337 30 green;
#X text 409 30 blue;
#X obj 405 102 t b f;
#X obj 339 160 +;
#X obj 339 185 t b f;
#X obj 339 216 +;
#X obj 296 385 outlet;
#X obj 296 361 f;
#X obj 249 361 f;
#X obj 262 79 * -65536;
#X obj 339 80 * -256;
#X obj 405 80 * -1;
#X obj 339 247 - 1;
#X obj 235 168 t b b b;
#X connect 0 0 19 0;
#X connect 1 0 15 0;
#X connect 2 0 16 0;
#X connect 3 0 17 0;
#X connect 8 0 9 0;
#X connect 8 1 9 1;
#X connect 9 0 10 0;
#X connect 10 0 11 0;
#X connect 10 1 11 1;
#X connect 11 0 18 0;
#X connect 13 0 12 0;
#X connect 14 0 4 0;
#X connect 15 0 11 0;
#X connect 16 0 9 0;
#X connect 17 0 8 0;
#X connect 18 0 14 1;
#X connect 19 0 14 0;
#X connect 19 1 13 0;
#X connect 19 2 18 0;
#X restore 209 -46 pd RGB_____________;
#X text 251 -95 red;
#X text 287 -96 green;
#X text 335 -96 blue;
#X obj 218 -13 pack 0 0;
#X obj 210 -110 t b b b b;
#X msg 283 -70 0;
#X obj 245 -355 r \$0-key-selection;
#X obj 251 -302 list-fifo;
#X obj 248 -331 t b a;
#X obj 250 -278 s2l;
#X obj 68 -293 initbang;
#X obj 70 -273 del 100;
#X msg 71 -253 color -9.86895e+06 0;
#X msg 217 12 color \$1 \$2;
#X obj 249 -243 sel 0 1 2;
#X msg 228 -177 1 2;
#X msg 268 -185 0 2;
#X msg 301 -185 0 1;
#X obj 204 -202 t b b;
#X obj 243 -208 t b b;
#X obj 301 -206 t b b;
#X obj 247 -141 s gui-canvas-unselect;
#X obj 69 -229 s \$0-gui-canvas;
#X obj 216 33 s \$0-gui-canvas;
#X msg 246 -72 255;
#X msg 320 -71 0;
#X connect 0 0 4 0;
#X connect 0 1 4 1;
#X connect 4 0 14 0;
#X connect 5 0 0 0;
#X connect 5 1 25 0;
#X connect 5 2 6 0;
#X connect 5 3 26 0;
#X connect 6 0 0 2;
#X connect 7 0 9 0;
#X connect 8 0 10 0;
#X connect 9 0 8 0;
#X connect 9 1 8 1;
#X connect 10 0 15 0;
#X connect 11 0 12 0;
#X connect 12 0 13 0;
#X connect 13 0 23 0;
#X connect 14 0 24 0;
#X connect 15 0 19 0;
#X connect 15 1 20 0;
#X connect 15 2 21 0;
#X connect 16 0 22 0;
#X connect 17 0 22 0;
#X connect 18 0 22 0;
#X connect 19 0 5 0;
#X connect 19 1 16 0;
#X connect 20 0 5 0;
#X connect 20 1 17 0;
#X connect 21 0 5 0;
#X connect 21 1 18 0;
#X connect 25 0 0 1;
#X connect 26 0 0 3;
#X restore 776 92 pd change_color_canvas;
#N canvas 420 264 450 300 __init__ 0;
#X obj 180 43 initbang;
#X msg 181 116 0;
#X obj 88 188 s me;
#X msg 115 123 \$0;
#X obj 25 120 s \$0-init;
#X obj 138 219 getdollarzero;
#X obj 133 184 bng 15 250 50 0 empty empty empty 17 7 0 10 -262144
-1 -1;
#X obj 91 259 s \$0-id;
#X obj 284 109 until;
#X msg 282 83 2;
#X obj 282 141 s \$0-video-effect-state;
#X obj 274 241 s \$0-video-invert-state;
#X obj 213 190 s \$0-video-alpha;
#X connect 0 0 1 0;
#X connect 0 0 3 0;
#X connect 0 0 4 0;
#X connect 0 0 9 0;
#X connect 1 0 12 0;
#X connect 3 0 2 0;
#X connect 3 0 7 0;
#X connect 5 0 2 0;
#X connect 6 0 5 0;
#X connect 8 0 10 0;
#X connect 8 0 11 0;
#X connect 9 0 8 0;
#X restore 776 72 pd __init__;
#N canvas 0 0 450 300 movie 0;
#X obj 101 205 gemhead;
#X obj 102 144 initbang;
#X obj 102 163 dollarg;
#X msg 102 183 set \$1;
#X obj 101 227 outlet;
#X connect 0 0 4 0;
#X connect 1 0 2 0;
#X connect 2 0 3 0;
#X connect 3 0 0 0;
#X restore 800 192 pd movie engine;
#N canvas 532 0 645 375 invert 0;
#X obj 383 49 loadbang;
#X msg 275 200 set -activebackground #005252;
#X obj 249 95 sel 0 1;
#X obj 251 72 tgl 15 0 empty empty empty 0 -6 0 10 -262144 -1 -1 0
1;
#X msg 378 77 0;
#X msg 339 235 -width 4;
#X msg 267 161 -bg #005252 -text invert;
#X msg 251 134 -bg grey -text invert;
#X obj 251 14 r \$0-video-invert-state;
#X obj 240 293 s \$0-video-invert-button;
#X obj 96 30 inlet;
#X obj 121 246 outlet;
#X obj 120 203 pix_invert;
#X connect 0 0 1 0;
#X connect 0 0 7 0;
#X connect 0 0 4 0;
#X connect 0 0 5 0;
#X connect 1 0 9 0;
#X connect 2 0 7 0;
#X connect 2 1 6 0;
#X connect 3 0 2 0;
#X connect 3 0 12 0;
#X connect 4 0 3 0;
#X connect 5 0 9 0;
#X connect 6 0 9 0;
#X connect 7 0 9 0;
#X connect 8 0 3 0;
#X connect 10 0 12 0;
#X connect 12 0 11 0;
#X restore 800 300 pd invert button;
#N canvas 52 0 581 420 colorize 0;
#X obj 52 177 colorRGB;
#X obj 39 73 inlet;
#X obj 54 210 outlet;
#N canvas 223 381 450 300 color-button 0;
#X obj 340 5 loadbang;
#X msg 232 156 set -activebackground #005252;
#X obj 206 51 sel 0 1;
#X obj 208 28 tgl 15 0 empty empty empty 0 -6 0 10 -262144 -1 -1 0
1;
#X msg 335 33 0;
#X msg 296 191 -width 4;
#X obj 211 -17 r \$0-video-color-state;
#X obj 197 249 s \$0-video-color-button;
#X msg 224 117 -bg #005252 -text color;
#X msg 208 90 -bg grey -text color;
#X obj 74 89 outlet;
#X obj 124 89 outlet;
#X obj 350 75 outlet;
#X connect 0 0 1 0;
#X connect 0 0 9 0;
#X connect 0 0 4 0;
#X connect 0 0 5 0;
#X connect 1 0 7 0;
#X connect 2 0 9 0;
#X connect 2 0 11 0;
#X connect 2 1 8 0;
#X connect 2 1 12 0;
#X connect 3 0 2 0;
#X connect 3 0 10 0;
#X connect 4 0 3 0;
#X connect 5 0 7 0;
#X connect 6 0 3 0;
#X connect 8 0 7 0;
#X connect 9 0 7 0;
#X restore 250 8 pd color-button;
#X obj 103 136 r \$0-video-alpha;
#X obj 379 191 t b b;
#X obj 375 213 pack 0 0 0 0;
#X obj 340 164 t b b;
#X obj 372 318 unpack 0 0 0 0;
#X obj 364 86 t b;
#X msg 376 249 set 0 \$2 \$3 \$4;
#X msg 363 288 0 0 0 0;
#X msg 322 197 1 1 1;
#X obj 288 223 unpack 0 0 0;
#X obj 108 100 r \$0-color-b;
#X obj 95 81 r \$0-color-g;
#X obj 79 61 r \$0-color-r;
#X obj 401 128 r \$0-color-r;
#X obj 417 148 r \$0-color-g;
#X obj 442 167 r \$0-color-b;
#X msg 218 154 \; pd-\$1-color vis \$2;
#N canvas 19 79 334 253 \$0-color 0;
#X obj -149 79 cnv 15 225 26 empty empty video-color 20 12 0 30 -191407
-66577 0;
#X obj -147 105 hsl 220 20 0 1 0 0 empty empty empty -2 -8 0 10 -258113
-1 -1 0 1;
#X obj -147 126 hsl 220 20 0 1 0 0 empty empty empty -2 -8 0 10 -4034
-1 -1 0 1;
#X obj -147 146 hsl 220 20 0 1 0 0 empty empty empty -2 -8 0 10 -4160
-1 -1 0 1;
#X obj -179 238 s \$0-color-r;
#X obj -84 242 s \$0-color-g;
#X obj -2 248 s \$0-color-g;
#X connect 1 0 4 0;
#X connect 2 0 5 0;
#X connect 3 0 6 0;
#X restore 20 20 pd \$0-color;
#X obj 230 73 list prepend \$0;
#X floatatom 146 174 5 0 0 0 - - -;
#N canvas 58 121 456 306 fade_toggle 0;
#X obj 72 16 inlet;
#X obj 78 170 line;
#X msg 48 124 100 750;
#X obj 78 194 / 100;
#X obj 72 51 tgl 15 0 empty empty empty 0 -6 0 8 -262144 -1 -1 0 1
;
#X obj 31 86 select 1;
#X obj 100 86 select 0;
#X obj 78 221 outlet;
#X msg 114 124 0 400;
#X connect 0 0 4 0;
#X connect 1 0 3 0;
#X connect 2 0 1 0;
#X connect 3 0 7 0;
#X connect 4 0 5 0;
#X connect 4 0 6 0;
#X connect 5 0 2 0;
#X connect 6 0 8 0;
#X connect 8 0 1 0;
#X restore 71 308 pd fade_toggle;
#X obj 71 282 r \$0-fade;
#X connect 0 0 2 0;
#X connect 1 0 0 0;
#X connect 3 0 22 0;
#X connect 3 1 7 0;
#X connect 3 2 9 0;
#X connect 4 0 0 4;
#X connect 4 0 23 0;
#X connect 5 0 6 0;
#X connect 6 0 10 0;
#X connect 7 0 12 0;
#X connect 7 1 5 0;
#X connect 8 1 0 1;
#X connect 8 2 0 2;
#X connect 8 3 0 3;
#X connect 9 0 11 0;
#X connect 10 0 11 0;
#X connect 11 0 8 0;
#X connect 12 0 13 0;
#X connect 13 0 0 1;
#X connect 13 1 0 2;
#X connect 13 2 0 3;
#X connect 14 0 0 3;
#X connect 15 0 0 2;
#X connect 16 0 0 1;
#X connect 17 0 6 1;
#X connect 18 0 6 2;
#X connect 19 0 6 3;
#X connect 22 0 20 0;
#X connect 24 0 0 4;
#X connect 25 0 24 0;
#X restore 798 329 pd colorize;
#N canvas 0 0 450 300 movie 0;
#X obj 89 136 rectangle 5 3;
#X obj 92 50 inlet;
#X obj 99 101 pix_texture;
#X connect 1 0 2 0;
#X connect 2 0 0 0;
#X restore 803 446 pd movie texture;
#N canvas 191 65 434 444 movie 0;
#X obj 146 285 alpha;
#X msg 195 108 open \$1;
#X obj 195 86 symbol;
#X obj 195 67 r \$0-video-open;
#X obj 148 69 inlet;
#X obj 145 340 outlet;
#X obj 148 169 pix_image;
#X connect 0 0 5 0;
#X connect 1 0 6 0;
#X connect 2 0 1 0;
#X connect 3 0 2 0;
#X connect 4 0 6 0;
#X connect 6 0 0 0;
#X restore 800 229 pd movie player;
#X obj 123 50 symbol;
#X obj 123 31 r \$0-video-open;
#X msg 122 77 putvideo \$1;
#X obj 351 304 s \$0-video-invert-state;
#X obj 341 44 r \$0-video-invert-button;
#X obj 412 337 s \$0-video-color-state;
#X obj 417 73 r \$0-video-color-button;
#X obj 292 533 list prepend \$0;
#N canvas 341 236 208 396 \$0-clock_assign 0;
#N canvas 810 388 201 182 clock_assign 0;
#N canvas 465 357 620 429 set_alpha_slider 0;
#X obj 125 -23 + 1;
#X obj 105 25 sel 1;
#X msg 96 56 0;
#X obj 84 -46 bng 15 250 50 0 empty empty empty 0 -6 0 10 -262144 -1
-1;
#X floatatom 64 39 5 0 0 0 - - -;
#X obj 79 -22 i 1;
#X obj 80 -89 spigot 0;
#N canvas 82 411 450 300 clock_choose 0;
#X obj 138 -40 r master_clock;
#X obj 157 -17 r half_clock;
#X obj 168 9 r quarter_clock;
#X obj 172 27 r manual_clock;
#X obj 122 55 switch 4;
#X obj 116 -62 + 1;
#X obj 124 102 outlet;
#X obj 114 -113 r \$0-video-clock-alpha;
#X connect 0 0 4 1;
#X connect 1 0 4 2;
#X connect 2 0 4 3;
#X connect 3 0 4 4;
#X connect 4 0 6 0;
#X connect 5 0 4 0;
#X connect 7 0 5 0;
#X restore 77 -148 pd clock_choose;
#X obj 256 -152 ../device/midiLearn/2b2o;
#X obj 252 -174 r master_alpha1_r;
#X obj 256 -130 s master_alpha1_midi;
#X obj 200 -26 ../device/midiLearn/midiOpen 0 1 master_alpha1_r;
#X obj 409 -49 r midi_master_alpha1_r;
#X obj 179 -171 r midiLearn;
#X obj 178 -150 expr 1-$f1;
#X obj 142 -128 spigot 1;
#X obj 59 79 s \$0-video-alpha-slider;
#X connect 0 0 5 1;
#X connect 1 0 2 0;
#X connect 2 0 5 1;
#X connect 3 0 5 0;
#X connect 4 0 16 0;
#X connect 5 0 0 0;
#X connect 5 0 1 0;
#X connect 5 0 4 0;
#X connect 6 0 3 0;
#X connect 7 0 6 0;
#X connect 8 0 10 0;
#X connect 9 0 8 0;
#X connect 12 0 11 1;
#X connect 13 0 14 0;
#X connect 14 0 15 1;
#X connect 15 0 6 1;
#X restore 20 -35 pd set_alpha_slider;
#N canvas 334 402 762 337 set_scratch_slider 0;
#X obj 219 -11 bng 15 250 50 0 empty empty empty 0 -6 0 10 -262144
-1 -1;
#X obj 220 19 random 100;
#N canvas 384 109 450 300 clock_choose 0;
#X obj 138 -40 r master_clock;
#X obj 157 -17 r half_clock;
#X obj 168 9 r quarter_clock;
#X obj 172 27 r manual_clock;
#X obj 122 55 switch 4;
#X obj 116 -62 + 1;
#X obj 124 102 outlet;
#X obj 121 -104 r \$0-video-clock-scratch-popup;
#X connect 0 0 4 1;
#X connect 1 0 4 2;
#X connect 2 0 4 3;
#X connect 3 0 4 4;
#X connect 4 0 6 0;
#X connect 5 0 4 0;
#X connect 7 0 5 0;
#X restore 214 -118 pd clock_choose;
#X obj 219 -43 spigot 0;
#X obj 444 -76 ../device/midiLearn/2b2o;
#X obj 440 -98 r master_scratch1_r;
#X obj 444 -54 s master_scratch1_midi;
#X obj 597 27 r midi_master_scratch1_r;
#X obj 388 50 ../device/midiLearn/midiOpen 0 1 master_scratch1_r;
#X obj 310 -105 r midiLearn;
#X obj 309 -84 expr 1-$f1;
#X obj 273 -62 spigot 1;
#X obj 256 -86 r \$0-video-clock-scratch-toggle;
#X obj 221 114 s \$0-video-scratch-slider;
#X obj 268 -7 r \$0-video-length;
#X connect 0 0 1 0;
#X connect 1 0 13 0;
#X connect 2 0 3 0;
#X connect 3 0 0 0;
#X connect 4 0 6 0;
#X connect 5 0 4 0;
#X connect 7 0 8 1;
#X connect 9 0 10 0;
#X connect 10 0 11 1;
#X connect 11 0 3 1;
#X connect 12 0 3 1;
#X connect 14 0 1 1;
#X restore 20 -15 pd set_scratch_slider;
#N canvas 410 376 775 275 set_effect_range 0;
#X obj 277 -87 tgl 15 0 empty master_effect_range1 empty 0 -6 0 10
-262144 -1 -1 0 1;
#X obj 219 -11 bng 15 250 50 0 empty empty empty 0 -6 0 10 -262144
-1 -1;
#X obj 220 19 random 100;
#X obj 226 53 / 100;
#X obj 219 -53 spigot 0;
#N canvas 0 0 450 300 clock_chooser 0;
#X obj 138 -40 r master_clock;
#X obj 157 -17 r half_clock;
#X obj 168 9 r quarter_clock;
#X obj 172 27 r manual_clock;
#X obj 122 55 switch 4;
#X obj 116 -62 + 1;
#X obj 124 102 outlet;
#X obj 114 -122 r \$0-video-clock-effectrange-popup;
#X connect 0 0 4 1;
#X connect 1 0 4 2;
#X connect 2 0 4 3;
#X connect 3 0 4 4;
#X connect 4 0 6 0;
#X connect 5 0 4 0;
#X connect 7 0 5 0;
#X restore 220 -108 pd clock_chooser;
#X obj 392 -80 ../device/midiLearn/2b2o;
#X obj 388 -102 r master_effect_range1_r;
#X obj 392 -58 s master_effect_range1_midi;
#X obj 545 23 r midi_master_effect_range1_r;
#X obj 336 46 ../device/midiLearn/midiOpen 0 1 master_effect_range1_r
;
#X obj 314 -97 r midiLearn;
#X obj 313 -76 expr 1-$f1;
#X obj 277 -54 spigot 1;
#X obj 261 -90 r \$0-video-clock-effectrange-toggle;
#X obj 221 114 s \$0-video-effect-slider-rcv;
#X connect 0 0 10 0;
#X connect 0 0 13 0;
#X connect 1 0 2 0;
#X connect 2 0 3 0;
#X connect 3 0 15 0;
#X connect 4 0 1 0;
#X connect 5 0 4 0;
#X connect 6 0 8 0;
#X connect 7 0 6 0;
#X connect 9 0 10 1;
#X connect 11 0 12 0;
#X connect 12 0 13 1;
#X connect 13 0 4 1;
#X connect 14 0 4 1;
#X restore 20 4 pd set_effect_range;
#N canvas 183 515 1273 300 set_invert_button 0;
#X obj 280 -83 tgl 15 0 empty master_invert1 empty 0 -6 0 10 -262144
-1 -1 0 1;
#X obj 219 -11 bng 15 250 50 0 empty empty empty 0 -6 0 10 -262144
-1 -1;
#N canvas 0 0 450 300 clock_chooser 0;
#X obj 138 -40 r master_clock;
#X obj 157 -17 r half_clock;
#X obj 168 9 r quarter_clock;
#X obj 172 27 r manual_clock;
#X obj 122 55 switch 4;
#X obj 116 -62 + 1;
#X obj 124 102 outlet;
#X obj 114 -122 r \$0-video-clock-invert-popup;
#X connect 0 0 4 1;
#X connect 1 0 4 2;
#X connect 2 0 4 3;
#X connect 3 0 4 4;
#X connect 4 0 6 0;
#X connect 5 0 4 0;
#X connect 7 0 5 0;
#X restore 220 -108 pd clock_chooser;
#X obj 219 -53 spigot 0;
#X obj 398 4 ../device/midiLearn/2b2o;
#X obj 555 33 r midi_master_invert1_r;
#X obj 396 -18 r master_invert1_r;
#X obj 398 26 s master_invert1_midi;
#X obj 346 56 ../device/midiLearn/midiOpen 0 1 master_invert1_r;
#X obj 323 -95 r midiLearn;
#X obj 322 -74 expr 1-$f1;
#X obj 286 -52 spigot 1;
#X obj 456 -69 r \$0-video-clock-invert-toggle;
#X obj 194 26 s \$0-video-invert-state;
#X connect 0 0 8 0;
#X connect 0 0 11 0;
#X connect 1 0 13 0;
#X connect 2 0 3 0;
#X connect 3 0 1 0;
#X connect 4 0 7 0;
#X connect 5 0 8 1;
#X connect 6 0 4 0;
#X connect 9 0 10 0;
#X connect 10 0 11 1;
#X connect 11 0 3 1;
#X connect 12 0 3 1;
#X restore 20 26 pd set_invert_button;
#N canvas 313 450 941 321 set_rallenty_button 0;
#X obj 279 -85 tgl 15 0 empty master_rallenty1 empty 0 -6 0 10 -262144
-1 -1 0 1;
#X obj 219 -11 bng 15 250 50 0 empty empty empty 0 -6 0 10 -262144
-1 -1;
#X obj 222 114 s video1_rallenty_state;
#N canvas 0 0 450 300 clock_chooser 0;
#X obj 138 -40 r master_clock;
#X obj 157 -17 r half_clock;
#X obj 168 9 r quarter_clock;
#X obj 172 27 r manual_clock;
#X obj 122 55 switch 4;
#X obj 116 -62 + 1;
#X obj 124 102 outlet;
#X obj 114 -122 r player1_rallenty_clock_sel;
#X connect 0 0 4 1;
#X connect 1 0 4 2;
#X connect 2 0 4 3;
#X connect 3 0 4 4;
#X connect 4 0 6 0;
#X connect 5 0 4 0;
#X connect 7 0 5 0;
#X restore 220 -108 pd clock_chooser;
#X obj 219 -53 spigot 0;
#X obj 412 -60 ../device/midiLearn/2b2o;
#X obj 408 -82 r master_rallenty1_r;
#X obj 412 -38 s master_rallenty1_midi;
#X obj 565 43 r midi_master_rallenty1_r;
#X obj 356 66 ../device/midiLearn/midiOpen 0 1 master_rallenty1_r;
#X obj 343 -75 r midiLearn;
#X obj 342 -54 expr 1-$f1;
#X obj 306 -32 spigot 1;
#X connect 0 0 12 0;
#X connect 0 0 9 0;
#X connect 1 0 2 0;
#X connect 3 0 4 0;
#X connect 4 0 1 0;
#X connect 5 0 7 0;
#X connect 6 0 5 0;
#X connect 8 0 9 1;
#X connect 10 0 11 0;
#X connect 11 0 12 1;
#X connect 12 0 4 1;
#X restore 21 47 pd set_rallenty_button;
#N canvas 259 328 884 321 set_activate_effect 0;
#X obj 299 -87 tgl 15 0 empty master_effect_act1 empty 0 -6 0 10 -262144
-1 -1 0 1;
#X obj 219 -11 bng 15 250 50 0 empty empty empty 0 -6 0 10 -262144
-1 -1;
#X obj 222 114 s video1_effect_state;
#N canvas 0 0 450 300 clock_chooser 0;
#X obj 138 -40 r master_clock;
#X obj 157 -17 r half_clock;
#X obj 168 9 r quarter_clock;
#X obj 172 27 r manual_clock;
#X obj 122 55 switch 4;
#X obj 116 -62 + 1;
#X obj 124 102 outlet;
#X obj 114 -122 r player1_activate_effect_clock_sel;
#X connect 0 0 4 1;
#X connect 1 0 4 2;
#X connect 2 0 4 3;
#X connect 3 0 4 4;
#X connect 4 0 6 0;
#X connect 5 0 4 0;
#X connect 7 0 5 0;
#X restore 220 -108 pd clock_chooser;
#X obj 219 -53 spigot 0;
#X obj 422 -50 ../device/midiLearn/2b2o;
#X obj 418 -72 r master_effect_act1_r;
#X obj 422 -28 s master_effect_act1_midi;
#X obj 559 53 r midi_master_effect_act1_r;
#X obj 366 76 ../device/midiLearn/midiOpen 0 1 master_effect_act1_r
;
#X obj 339 -104 r midiLearn;
#X obj 338 -83 expr 1-$f1;
#X obj 302 -61 spigot 1;
#X connect 0 0 9 0;
#X connect 0 0 12 0;
#X connect 1 0 2 0;
#X connect 3 0 4 0;
#X connect 4 0 1 0;
#X connect 5 0 7 0;
#X connect 6 0 5 0;
#X connect 8 0 9 1;
#X connect 10 0 11 0;
#X connect 11 0 12 1;
#X connect 12 0 4 1;
#X restore 22 66 pd set_activate_effect;
#X restore -22 211 pd clock_assign;
#X obj -86 -28 cnv 15 200 390 empty empty CLOCK_ASSIGN 16 12 1 18 -1
-262144 0;
#N canvas 602 231 450 300 (subpatch) 0;
#X obj 248 22 initbang;
#X msg 254 48 0;
#X obj 80 56 bng 15 250 50 0 empty empty empty 0 -6 0 10 -262144 -1
-1;
#X msg 230 2 options master half quarter manual;
#X obj 242 227 + 1;
#X obj 222 275 sel 1;
#X msg 213 306 0;
#X floatatom 181 289 5 0 0 0 - - -;
#X obj 196 228 i 1;
#X obj 197 161 spigot 0;
#X obj 176 329 s \$0-video-alpha-slider;
#X obj 127 18 tgl 27 0 empty empty empty 17 7 0 10 -1 -258113 -1 0
1;
#X obj 2 17 popup 124 25 #ffffff popup master half quarter manual;
#X obj 63 2 cnv 15 89 20 empty empty empty 20 12 0 14 -1 -66577 0;
#X obj 2 2 cnv 15 70 44 empty empty alpa 20 8 0 20 -128992 -258113
0;
#X obj 194 102 ../router/master_router;
#X connect 0 0 1 0;
#X connect 1 0 12 0;
#X connect 3 0 12 0;
#X connect 4 0 8 1;
#X connect 5 0 6 0;
#X connect 6 0 8 1;
#X connect 7 0 10 0;
#X connect 8 0 4 0;
#X connect 8 0 5 0;
#X connect 8 0 7 0;
#X connect 9 0 8 0;
#X connect 11 0 9 1;
#X connect 12 0 15 0;
#X connect 15 0 9 0;
#X coords 0 1 100 -1 157 45 1 0 0;
#X restore -72 26 graph;
#N canvas 474 243 450 300 (subpatch) 0;
#X obj 253 24 initbang;
#X msg 219 46 0;
#X msg 263 75 options master half quarter manual;
#X msg 229 1 options master half quarter manual;
#X obj 126 17 tgl 27 0 empty empty empty 17 7 0 10 -1 -258113 -1 0
1;
#X obj 1 16 popup 124 25 #ffffff popup master half quarter manual;
#X obj 62 1 cnv 15 89 20 empty empty empty 20 12 0 14 -1 -66577 0;
#X obj 1 1 cnv 15 70 44 empty empty invert 20 8 0 20 -128992 -258113
0;
#X obj 108 106 tgl 15 0 empty master_invert1 empty 0 -6 0 10 -262144
-1 -1 0 1;
#X obj 47 136 spigot 0;
#X obj 114 137 spigot 1;
#X obj 22 215 s \$0-video-invert-state;
#X obj 48 81 ../router/master_router;
#X connect 0 0 1 0;
#X connect 1 0 5 0;
#X connect 3 0 5 0;
#X connect 4 0 9 1;
#X connect 5 0 12 0;
#X connect 8 0 10 0;
#X connect 9 0 11 0;
#X connect 10 0 9 1;
#X connect 12 0 9 0;
#X coords 0 -1 1 1 157 45 1 0 0;
#X restore -72 117 graph;
#N canvas 0 0 450 300 (subpatch) 0;
#X obj 247 22 initbang;
#X msg 253 48 0;
#X msg 229 2 options master half quarter manual;
#X obj 126 18 tgl 27 0 empty empty empty 17 7 0 10 -1 -258113 -1 0
1;
#X obj 1 17 popup 124 25 #ffffff popup master half quarter manual;
#X obj 62 2 cnv 15 89 20 empty empty empty 20 12 0 14 -1 -66577 0;
#X obj 1 2 cnv 15 70 44 empty empty scale 5 8 0 20 -128992 -258113
0;
#X obj 122 122 tgl 15 0 empty master_effect_act1 empty 0 -6 0 10 -262144
-1 -1 0 1;
#X obj 42 156 spigot 0;
#X obj 125 148 spigot 1;
#X obj 43 101 ../router/master_router;
#X obj 45 252;
#X obj 45 252 s \$0-video-scale-rcv;
#X obj 40 186 random 20;
#X floatatom 41 219 5 0 0 0 - - -;
#X connect 0 0 1 0;
#X connect 1 0 4 0;
#X connect 2 0 4 0;
#X connect 3 0 8 1;
#X connect 4 0 10 0;
#X connect 7 0 9 0;
#X connect 8 0 13 0;
#X connect 9 0 8 1;
#X connect 10 0 8 0;
#X connect 13 0 14 0;
#X connect 14 0 12 0;
#X coords 0 1 100 -1 157 45 1 0 0;
#X restore -72 162 graph;
#N canvas 474 243 450 300 (subpatch) 0;
#X obj 253 24 initbang;
#X msg 219 46 0;
#X msg 263 75 options master half quarter manual;
#X msg 229 1 options master half quarter manual;
#X obj 126 17 tgl 27 0 empty empty empty 17 7 0 10 -1 -258113 -1 0
1;
#X obj 1 16 popup 124 25 #ffffff popup master half quarter manual;
#X obj 62 1 cnv 15 89 20 empty empty empty 20 12 0 14 -1 -66577 0;
#X obj 1 1 cnv 15 70 44 empty empty color 20 8 0 20 -128992 -258113
0;
#X obj 108 106 tgl 15 0 empty master_invert1 empty 0 -6 0 10 -262144
-1 -1 0 1;
#X obj 47 136 spigot 0;
#X obj 114 137 spigot 1;
#X obj 48 81 ../router/master_router;
#X obj 22 215 s \$0-video-color-state;
#X connect 0 0 1 0;
#X connect 1 0 5 0;
#X connect 3 0 5 0;
#X connect 4 0 9 1;
#X connect 5 0 11 0;
#X connect 8 0 10 0;
#X connect 9 0 12 0;
#X connect 10 0 9 1;
#X connect 11 0 9 0;
#X coords 0 -1 1 1 157 45 1 0 0;
#X restore -72 71 graph;
#N canvas 0 0 450 300 (subpatch) 0;
#X obj 247 22 initbang;
#X msg 253 48 0;
#X msg 229 2 options master half quarter manual;
#X obj 126 18 tgl 27 0 empty empty empty 17 7 0 10 -1 -258113 -1 0
1;
#X obj 1 17 popup 124 25 #ffffff popup master half quarter manual;
#X obj 62 2 cnv 15 89 20 empty empty empty 20 12 0 14 -1 -66577 0;
#X obj 1 2 cnv 15 70 44 empty empty scaleX 5 8 0 20 -128992 -258113
0;
#X obj 122 122 tgl 15 0 empty master_effect_act1 empty 0 -6 0 10 -262144
-1 -1 0 1;
#X obj 42 156 spigot 0;
#X obj 125 148 spigot 1;
#X obj 43 101 ../router/master_router;
#X obj 45 252;
#X floatatom 41 219 5 0 0 0 - - -;
#X obj 45 252 s \$0-video-xscale-rcv;
#X obj 40 186 random 200;
#X connect 0 0 1 0;
#X connect 1 0 4 0;
#X connect 2 0 4 0;
#X connect 3 0 8 1;
#X connect 4 0 10 0;
#X connect 7 0 9 0;
#X connect 8 0 14 0;
#X connect 9 0 8 1;
#X connect 10 0 8 0;
#X connect 12 0 13 0;
#X connect 14 0 12 0;
#X coords 0 1 100 -1 157 45 1 0 0;
#X restore -72 207 graph;
#N canvas 0 0 450 300 (subpatch) 0;
#X obj 247 22 initbang;
#X msg 253 48 0;
#X msg 229 2 options master half quarter manual;
#X obj 126 18 tgl 27 0 empty empty empty 17 7 0 10 -1 -258113 -1 0
1;
#X obj 1 17 popup 124 25 #ffffff popup master half quarter manual;
#X obj 62 2 cnv 15 89 20 empty empty empty 20 12 0 14 -1 -66577 0;
#X obj 1 2 cnv 15 70 44 empty empty rotate 5 8 0 20 -128992 -258113
0;
#X obj 122 122 tgl 15 0 empty master_effect_act1 empty 0 -6 0 10 -262144
-1 -1 0 1;
#X obj 42 156 spigot 0;
#X obj 125 148 spigot 1;
#X obj 43 101 ../router/master_router;
#X obj 45 252;
#X floatatom 41 219 5 0 0 0 - - -;
#X obj 45 252 s \$0-video-rotate-rcv;
#X obj 40 186 random 359;
#X connect 0 0 1 0;
#X connect 1 0 4 0;
#X connect 2 0 4 0;
#X connect 3 0 8 1;
#X connect 4 0 10 0;
#X connect 7 0 9 0;
#X connect 8 0 14 0;
#X connect 9 0 8 1;
#X connect 10 0 8 0;
#X connect 12 0 13 0;
#X connect 14 0 12 0;
#X coords 0 1 100 -1 157 45 1 0 0;
#X restore -72 251 graph;
#N canvas 0 0 450 300 (subpatch) 0;
#X obj 247 22 initbang;
#X msg 253 48 0;
#X msg 229 2 options master half quarter manual;
#X obj 126 18 tgl 27 0 empty empty empty 17 7 0 10 -1 -258113 -1 0
1;
#X obj 1 17 popup 124 25 #ffffff popup master half quarter manual;
#X obj 62 2 cnv 15 89 20 empty empty empty 20 12 0 14 -1 -66577 0;
#X obj 1 2 cnv 15 70 44 empty empty rotate 5 8 0 20 -128992 -258113
0;
#X obj 122 122 tgl 15 0 empty master_effect_act1 empty 0 -6 0 10 -262144
-1 -1 0 1;
#X obj 42 156 spigot 0;
#X obj 125 148 spigot 1;
#X obj 43 101 ../router/master_router;
#X obj 37 245 s \$0-video-reset-bang-rcv;
#X connect 0 0 1 0;
#X connect 1 0 4 0;
#X connect 2 0 4 0;
#X connect 3 0 8 1;
#X connect 4 0 10 0;
#X connect 7 0 9 0;
#X connect 8 0 11 0;
#X connect 9 0 8 1;
#X connect 10 0 8 0;
#X coords 0 1 100 -1 157 45 1 0 0;
#X restore -72 295 graph;
#X restore 93 566 pd \$0-clock_assign;
#X msg 287 553 \; pd-\$1-clock_assign vis 1;
#X obj 80 431 list prepend \$0;
#X msg 76 451 \; pd-\$1-audio_assign vis 1;
#N canvas 405 239 206 393 \$0-audio_assign 0;
#X obj -92 -22 cnv 15 200 380 empty empty AUDIO_ASSIGN 17 12 1 18 -1
-262144 0;
#N canvas 282 113 450 300 (subpatch) 0;
#X obj 248 22 initbang;
#X msg 254 48 0;
#X obj 80 56 bng 15 250 50 0 empty empty empty 0 -6 0 10 -262144 -1
-1;
#X obj 242 227 + 1;
#X obj 222 275 sel 1;
#X msg 213 306 0;
#X floatatom 181 289 5 0 0 0 - - -;
#X obj 196 228 i 1;
#X obj 197 161 spigot 0;
#X obj 176 329 s \$0-video-alpha-slider;
#X obj 127 18 tgl 27 0 empty empty empty 17 7 0 10 -1 -258113 -1 0
1;
#X obj 2 17 popup 124 25 #ffffff popup bass middle higth;
#X obj 63 2 cnv 15 89 20 empty empty empty 20 12 0 14 -1 -66577 0;
#X obj 2 2 cnv 15 70 44 empty empty alpa 20 8 0 20 -128992 -258113
0;
#X obj 194 102 ../router/audio_router;
#X msg 212 -2 options bass middle higth;
#X connect 0 0 1 0;
#X connect 1 0 11 0;
#X connect 3 0 7 1;
#X connect 4 0 5 0;
#X connect 5 0 7 1;
#X connect 6 0 9 0;
#X connect 7 0 3 0;
#X connect 7 0 4 0;
#X connect 7 0 6 0;
#X connect 8 0 7 0;
#X connect 10 0 8 1;
#X connect 11 0 14 0;
#X connect 14 0 8 0;
#X connect 15 0 11 0;
#X coords 0 1 100 -1 157 45 1 0 0;
#X restore -72 26 graph;
#N canvas 474 243 450 300 (subpatch) 0;
#X obj 253 24 initbang;
#X msg 219 46 0;
#X msg 263 75 options master half quarter manual;
#X msg 229 1 options master half quarter manual;
#X obj 126 17 tgl 27 0 empty empty empty 17 7 0 10 -1 -258113 -1 0
1;
#X obj 1 16 popup 124 25 #ffffff popup master half quarter manual;
#X obj 62 1 cnv 15 89 20 empty empty empty 20 12 0 14 -1 -66577 0;
#X obj 1 1 cnv 15 70 44 empty empty color 20 8 0 20 -128992 -258113
0;
#X obj 108 106 tgl 15 0 empty master_invert1 empty 0 -6 0 10 -262144
-1 -1 0 1;
#X obj 47 136 spigot 0;
#X obj 114 137 spigot 1;
#X obj 22 215 s \$0-video-color-state;
#X obj 48 81 ../router/audio_router;
#X connect 0 0 1 0;
#X connect 1 0 5 0;
#X connect 3 0 5 0;
#X connect 4 0 9 1;
#X connect 5 0 12 0;
#X connect 8 0 10 0;
#X connect 9 0 11 0;
#X connect 10 0 9 1;
#X connect 12 0 9 0;
#X coords 0 -1 1 1 157 45 1 0 0;
#X restore -71 73 graph;
#N canvas 810 388 201 182 clock_assign 0;
#N canvas 465 357 620 429 set_alpha_slider 0;
#X obj 125 -23 + 1;
#X obj 105 25 sel 1;
#X msg 96 56 0;
#X obj 84 -46 bng 15 250 50 0 empty empty empty 0 -6 0 10 -262144 -1
-1;
#X floatatom 64 39 5 0 0 0 - - -;
#X obj 79 -22 i 1;
#X obj 80 -89 spigot 0;
#N canvas 82 411 450 300 clock_choose 0;
#X obj 138 -40 r master_clock;
#X obj 157 -17 r half_clock;
#X obj 168 9 r quarter_clock;
#X obj 172 27 r manual_clock;
#X obj 122 55 switch 4;
#X obj 116 -62 + 1;
#X obj 124 102 outlet;
#X obj 114 -113 r \$0-video-clock-alpha;
#X connect 0 0 4 1;
#X connect 1 0 4 2;
#X connect 2 0 4 3;
#X connect 3 0 4 4;
#X connect 4 0 6 0;
#X connect 5 0 4 0;
#X connect 7 0 5 0;
#X restore 77 -148 pd clock_choose;
#X obj 256 -152 ../device/midiLearn/2b2o;
#X obj 252 -174 r master_alpha1_r;
#X obj 256 -130 s master_alpha1_midi;
#X obj 200 -26 ../device/midiLearn/midiOpen 0 1 master_alpha1_r;
#X obj 409 -49 r midi_master_alpha1_r;
#X obj 179 -171 r midiLearn;
#X obj 178 -150 expr 1-$f1;
#X obj 142 -128 spigot 1;
#X obj 59 79 s \$0-video-alpha-slider;
#X connect 0 0 5 1;
#X connect 1 0 2 0;
#X connect 2 0 5 1;
#X connect 3 0 5 0;
#X connect 4 0 16 0;
#X connect 5 0 0 0;
#X connect 5 0 1 0;
#X connect 5 0 4 0;
#X connect 6 0 3 0;
#X connect 7 0 6 0;
#X connect 8 0 10 0;
#X connect 9 0 8 0;
#X connect 12 0 11 1;
#X connect 13 0 14 0;
#X connect 14 0 15 1;
#X connect 15 0 6 1;
#X restore 20 -35 pd set_alpha_slider;
#N canvas 334 402 762 337 set_scratch_slider 0;
#X obj 219 -11 bng 15 250 50 0 empty empty empty 0 -6 0 10 -262144
-1 -1;
#X obj 220 19 random 100;
#N canvas 384 109 450 300 clock_choose 0;
#X obj 138 -40 r master_clock;
#X obj 157 -17 r half_clock;
#X obj 168 9 r quarter_clock;
#X obj 172 27 r manual_clock;
#X obj 122 55 switch 4;
#X obj 116 -62 + 1;
#X obj 124 102 outlet;
#X obj 121 -104 r \$0-video-clock-scratch-popup;
#X connect 0 0 4 1;
#X connect 1 0 4 2;
#X connect 2 0 4 3;
#X connect 3 0 4 4;
#X connect 4 0 6 0;
#X connect 5 0 4 0;
#X connect 7 0 5 0;
#X restore 214 -118 pd clock_choose;
#X obj 219 -43 spigot 0;
#X obj 444 -76 ../device/midiLearn/2b2o;
#X obj 440 -98 r master_scratch1_r;
#X obj 444 -54 s master_scratch1_midi;
#X obj 597 27 r midi_master_scratch1_r;
#X obj 388 50 ../device/midiLearn/midiOpen 0 1 master_scratch1_r;
#X obj 310 -105 r midiLearn;
#X obj 309 -84 expr 1-$f1;
#X obj 273 -62 spigot 1;
#X obj 256 -86 r \$0-video-clock-scratch-toggle;
#X obj 221 114 s \$0-video-scratch-slider;
#X obj 268 -7 r \$0-video-length;
#X connect 0 0 1 0;
#X connect 1 0 13 0;
#X connect 2 0 3 0;
#X connect 3 0 0 0;
#X connect 4 0 6 0;
#X connect 5 0 4 0;
#X connect 7 0 8 1;
#X connect 9 0 10 0;
#X connect 10 0 11 1;
#X connect 11 0 3 1;
#X connect 12 0 3 1;
#X connect 14 0 1 1;
#X restore 20 -15 pd set_scratch_slider;
#N canvas 410 376 775 275 set_effect_range 0;
#X obj 277 -87 tgl 15 0 empty master_effect_range1 empty 0 -6 0 10
-262144 -1 -1 0 1;
#X obj 219 -11 bng 15 250 50 0 empty empty empty 0 -6 0 10 -262144
-1 -1;
#X obj 220 19 random 100;
#X obj 226 53 / 100;
#X obj 219 -53 spigot 0;
#N canvas 0 0 450 300 clock_chooser 0;
#X obj 138 -40 r master_clock;
#X obj 157 -17 r half_clock;
#X obj 168 9 r quarter_clock;
#X obj 172 27 r manual_clock;
#X obj 122 55 switch 4;
#X obj 116 -62 + 1;
#X obj 124 102 outlet;
#X obj 114 -122 r \$0-video-clock-effectrange-popup;
#X connect 0 0 4 1;
#X connect 1 0 4 2;
#X connect 2 0 4 3;
#X connect 3 0 4 4;
#X connect 4 0 6 0;
#X connect 5 0 4 0;
#X connect 7 0 5 0;
#X restore 220 -108 pd clock_chooser;
#X obj 392 -80 ../device/midiLearn/2b2o;
#X obj 388 -102 r master_effect_range1_r;
#X obj 392 -58 s master_effect_range1_midi;
#X obj 545 23 r midi_master_effect_range1_r;
#X obj 336 46 ../device/midiLearn/midiOpen 0 1 master_effect_range1_r
;
#X obj 314 -97 r midiLearn;
#X obj 313 -76 expr 1-$f1;
#X obj 277 -54 spigot 1;
#X obj 261 -90 r \$0-video-clock-effectrange-toggle;
#X obj 221 114 s \$0-video-effect-slider-rcv;
#X connect 0 0 10 0;
#X connect 0 0 13 0;
#X connect 1 0 2 0;
#X connect 2 0 3 0;
#X connect 3 0 15 0;
#X connect 4 0 1 0;
#X connect 5 0 4 0;
#X connect 6 0 8 0;
#X connect 7 0 6 0;
#X connect 9 0 10 1;
#X connect 11 0 12 0;
#X connect 12 0 13 1;
#X connect 13 0 4 1;
#X connect 14 0 4 1;
#X restore 20 4 pd set_effect_range;
#N canvas 183 515 1273 300 set_invert_button 0;
#X obj 280 -83 tgl 15 0 empty master_invert1 empty 0 -6 0 10 -262144
-1 -1 0 1;
#X obj 219 -11 bng 15 250 50 0 empty empty empty 0 -6 0 10 -262144
-1 -1;
#N canvas 0 0 450 300 clock_chooser 0;
#X obj 138 -40 r master_clock;
#X obj 157 -17 r half_clock;
#X obj 168 9 r quarter_clock;
#X obj 172 27 r manual_clock;
#X obj 122 55 switch 4;
#X obj 116 -62 + 1;
#X obj 124 102 outlet;
#X obj 114 -122 r \$0-video-clock-invert-popup;
#X connect 0 0 4 1;
#X connect 1 0 4 2;
#X connect 2 0 4 3;
#X connect 3 0 4 4;
#X connect 4 0 6 0;
#X connect 5 0 4 0;
#X connect 7 0 5 0;
#X restore 220 -108 pd clock_chooser;
#X obj 219 -53 spigot 0;
#X obj 398 4 ../device/midiLearn/2b2o;
#X obj 555 33 r midi_master_invert1_r;
#X obj 396 -18 r master_invert1_r;
#X obj 398 26 s master_invert1_midi;
#X obj 346 56 ../device/midiLearn/midiOpen 0 1 master_invert1_r;
#X obj 323 -95 r midiLearn;
#X obj 322 -74 expr 1-$f1;
#X obj 286 -52 spigot 1;
#X obj 456 -69 r \$0-video-clock-invert-toggle;
#X obj 194 26 s \$0-video-invert-state;
#X connect 0 0 8 0;
#X connect 0 0 11 0;
#X connect 1 0 13 0;
#X connect 2 0 3 0;
#X connect 3 0 1 0;
#X connect 4 0 7 0;
#X connect 5 0 8 1;
#X connect 6 0 4 0;
#X connect 9 0 10 0;
#X connect 10 0 11 1;
#X connect 11 0 3 1;
#X connect 12 0 3 1;
#X restore 20 26 pd set_invert_button;
#N canvas 313 450 941 321 set_rallenty_button 0;
#X obj 279 -85 tgl 15 0 empty master_rallenty1 empty 0 -6 0 10 -262144
-1 -1 0 1;
#X obj 219 -11 bng 15 250 50 0 empty empty empty 0 -6 0 10 -262144
-1 -1;
#X obj 222 114 s video1_rallenty_state;
#N canvas 0 0 450 300 clock_chooser 0;
#X obj 138 -40 r master_clock;
#X obj 157 -17 r half_clock;
#X obj 168 9 r quarter_clock;
#X obj 172 27 r manual_clock;
#X obj 122 55 switch 4;
#X obj 116 -62 + 1;
#X obj 124 102 outlet;
#X obj 114 -122 r player1_rallenty_clock_sel;
#X connect 0 0 4 1;
#X connect 1 0 4 2;
#X connect 2 0 4 3;
#X connect 3 0 4 4;
#X connect 4 0 6 0;
#X connect 5 0 4 0;
#X connect 7 0 5 0;
#X restore 220 -108 pd clock_chooser;
#X obj 219 -53 spigot 0;
#X obj 412 -60 ../device/midiLearn/2b2o;
#X obj 408 -82 r master_rallenty1_r;
#X obj 412 -38 s master_rallenty1_midi;
#X obj 565 43 r midi_master_rallenty1_r;
#X obj 356 66 ../device/midiLearn/midiOpen 0 1 master_rallenty1_r;
#X obj 343 -75 r midiLearn;
#X obj 342 -54 expr 1-$f1;
#X obj 306 -32 spigot 1;
#X connect 0 0 12 0;
#X connect 0 0 9 0;
#X connect 1 0 2 0;
#X connect 3 0 4 0;
#X connect 4 0 1 0;
#X connect 5 0 7 0;
#X connect 6 0 5 0;
#X connect 8 0 9 1;
#X connect 10 0 11 0;
#X connect 11 0 12 1;
#X connect 12 0 4 1;
#X restore 21 47 pd set_rallenty_button;
#N canvas 259 328 884 321 set_activate_effect 0;
#X obj 299 -87 tgl 15 0 empty master_effect_act1 empty 0 -6 0 10 -262144
-1 -1 0 1;
#X obj 219 -11 bng 15 250 50 0 empty empty empty 0 -6 0 10 -262144
-1 -1;
#X obj 222 114 s video1_effect_state;
#N canvas 0 0 450 300 clock_chooser 0;
#X obj 138 -40 r master_clock;
#X obj 157 -17 r half_clock;
#X obj 168 9 r quarter_clock;
#X obj 172 27 r manual_clock;
#X obj 122 55 switch 4;
#X obj 116 -62 + 1;
#X obj 124 102 outlet;
#X obj 114 -122 r player1_activate_effect_clock_sel;
#X connect 0 0 4 1;
#X connect 1 0 4 2;
#X connect 2 0 4 3;
#X connect 3 0 4 4;
#X connect 4 0 6 0;
#X connect 5 0 4 0;
#X connect 7 0 5 0;
#X restore 220 -108 pd clock_chooser;
#X obj 219 -53 spigot 0;
#X obj 422 -50 ../device/midiLearn/2b2o;
#X obj 418 -72 r master_effect_act1_r;
#X obj 422 -28 s master_effect_act1_midi;
#X obj 559 53 r midi_master_effect_act1_r;
#X obj 366 76 ../device/midiLearn/midiOpen 0 1 master_effect_act1_r
;
#X obj 339 -104 r midiLearn;
#X obj 338 -83 expr 1-$f1;
#X obj 302 -61 spigot 1;
#X connect 0 0 9 0;
#X connect 0 0 12 0;
#X connect 1 0 2 0;
#X connect 3 0 4 0;
#X connect 4 0 1 0;
#X connect 5 0 7 0;
#X connect 6 0 5 0;
#X connect 8 0 9 1;
#X connect 10 0 11 0;
#X connect 11 0 12 1;
#X connect 12 0 4 1;
#X restore 22 66 pd set_activate_effect;
#X restore -21 211 pd clock_assign;
#N canvas 474 243 450 300 (subpatch) 0;
#X obj 253 24 initbang;
#X msg 219 46 0;
#X msg 263 75 options master half quarter manual;
#X msg 229 1 options master half quarter manual;
#X obj 126 17 tgl 27 0 empty empty empty 17 7 0 10 -1 -258113 -1 0
1;
#X obj 1 16 popup 124 25 #ffffff popup master half quarter manual;
#X obj 62 1 cnv 15 89 20 empty empty empty 20 12 0 14 -1 -66577 0;
#X obj 1 1 cnv 15 70 44 empty empty invert 20 8 0 20 -128992 -258113
0;
#X obj 108 106 tgl 15 0 empty master_invert1 empty 0 -6 0 10 -262144
-1 -1 0 1;
#X obj 47 136 spigot 0;
#X obj 114 137 spigot 1;
#X obj 22 215 s \$0-video-invert-state;
#X obj 48 81 ../router/audio_router;
#X connect 0 0 1 0;
#X connect 1 0 5 0;
#X connect 3 0 5 0;
#X connect 4 0 9 1;
#X connect 5 0 12 0;
#X connect 8 0 10 0;
#X connect 9 0 11 0;
#X connect 10 0 9 1;
#X connect 12 0 9 0;
#X coords 0 -1 1 1 157 45 1 0 0;
#X restore -71 117 graph;
#N canvas 0 0 450 300 (subpatch) 0;
#X obj 247 22 initbang;
#X msg 253 48 0;
#X msg 229 2 options master half quarter manual;
#X obj 126 18 tgl 27 0 empty empty empty 17 7 0 10 -1 -258113 -1 0
1;
#X obj 1 17 popup 124 25 #ffffff popup master half quarter manual;
#X obj 62 2 cnv 15 89 20 empty empty empty 20 12 0 14 -1 -66577 0;
#X obj 1 2 cnv 15 70 44 empty empty scale 5 8 0 20 -128992 -258113
0;
#X obj 122 122 tgl 15 0 empty master_effect_act1 empty 0 -6 0 10 -262144
-1 -1 0 1;
#X obj 42 156 spigot 0;
#X obj 125 148 spigot 1;
#X obj 45 252;
#X obj 45 252 s \$0-video-scale-rcv;
#X obj 40 186 random 20;
#X floatatom 41 219 5 0 0 0 - - -;
#X obj 43 101 ../router/audio_router;
#X connect 0 0 1 0;
#X connect 1 0 4 0;
#X connect 2 0 4 0;
#X connect 3 0 8 1;
#X connect 4 0 14 0;
#X connect 7 0 9 0;
#X connect 8 0 12 0;
#X connect 9 0 8 1;
#X connect 12 0 13 0;
#X connect 13 0 11 0;
#X connect 14 0 8 0;
#X coords 0 1 100 -1 157 45 1 0 0;
#X restore -71 162 graph;
#N canvas 0 0 450 300 (subpatch) 0;
#X obj 247 22 initbang;
#X msg 253 48 0;
#X msg 229 2 options master half quarter manual;
#X obj 126 18 tgl 27 0 empty empty empty 17 7 0 10 -1 -258113 -1 0
1;
#X obj 1 17 popup 124 25 #ffffff popup master half quarter manual;
#X obj 62 2 cnv 15 89 20 empty empty empty 20 12 0 14 -1 -66577 0;
#X obj 1 2 cnv 15 70 44 empty empty scaleX 5 8 0 20 -128992 -258113
0;
#X obj 122 122 tgl 15 0 empty master_effect_act1 empty 0 -6 0 10 -262144
-1 -1 0 1;
#X obj 42 156 spigot 0;
#X obj 125 148 spigot 1;
#X obj 45 252;
#X floatatom 41 219 5 0 0 0 - - -;
#X obj 45 252 s \$0-video-xscale-rcv;
#X obj 40 186 random 200;
#X obj 43 101 ../router/audio_router;
#X connect 0 0 1 0;
#X connect 1 0 4 0;
#X connect 2 0 4 0;
#X connect 3 0 8 1;
#X connect 4 0 14 0;
#X connect 7 0 9 0;
#X connect 8 0 13 0;
#X connect 9 0 8 1;
#X connect 11 0 12 0;
#X connect 13 0 11 0;
#X connect 14 0 8 0;
#X coords 0 1 100 -1 157 45 1 0 0;
#X restore -71 207 graph;
#N canvas 0 0 450 300 (subpatch) 0;
#X obj 247 22 initbang;
#X msg 253 48 0;
#X msg 229 2 options master half quarter manual;
#X obj 126 18 tgl 27 0 empty empty empty 17 7 0 10 -1 -258113 -1 0
1;
#X obj 1 17 popup 124 25 #ffffff popup master half quarter manual;
#X obj 62 2 cnv 15 89 20 empty empty empty 20 12 0 14 -1 -66577 0;
#X obj 1 2 cnv 15 70 44 empty empty rotate 5 8 0 20 -128992 -258113
0;
#X obj 122 122 tgl 15 0 empty master_effect_act1 empty 0 -6 0 10 -262144
-1 -1 0 1;
#X obj 42 156 spigot 0;
#X obj 125 148 spigot 1;
#X obj 45 252;
#X floatatom 41 219 5 0 0 0 - - -;
#X obj 45 252 s \$0-video-rotate-rcv;
#X obj 40 186 random 359;
#X obj 43 101 ../router/audio_router;
#X connect 0 0 1 0;
#X connect 1 0 4 0;
#X connect 2 0 4 0;
#X connect 3 0 8 1;
#X connect 4 0 14 0;
#X connect 7 0 9 0;
#X connect 8 0 13 0;
#X connect 9 0 8 1;
#X connect 11 0 12 0;
#X connect 13 0 11 0;
#X connect 14 0 8 0;
#X coords 0 1 100 -1 157 45 1 0 0;
#X restore -71 251 graph;
#N canvas 0 0 450 300 (subpatch) 0;
#X obj 247 22 initbang;
#X msg 253 48 0;
#X msg 229 2 options master half quarter manual;
#X obj 126 18 tgl 27 0 empty empty empty 17 7 0 10 -1 -258113 -1 0
1;
#X obj 1 17 popup 124 25 #ffffff popup master half quarter manual;
#X obj 62 2 cnv 15 89 20 empty empty empty 20 12 0 14 -1 -66577 0;
#X obj 1 2 cnv 15 70 44 empty empty rotate 5 8 0 20 -128992 -258113
0;
#X obj 122 122 tgl 15 0 empty master_effect_act1 empty 0 -6 0 10 -262144
-1 -1 0 1;
#X obj 42 156 spigot 0;
#X obj 125 148 spigot 1;
#X obj 37 245 s \$0-video-reset-bang-rcv;
#X obj 43 101 ../router/audio_router;
#X connect 0 0 1 0;
#X connect 1 0 4 0;
#X connect 2 0 4 0;
#X connect 3 0 8 1;
#X connect 4 0 11 0;
#X connect 7 0 9 0;
#X connect 8 0 10 0;
#X connect 9 0 8 1;
#X connect 11 0 8 0;
#X coords 0 1 100 -1 157 45 1 0 0;
#X restore -71 295 graph;
#X restore 93 595 pd \$0-audio_assign;
#X obj 522 32 r \$0-video-alpha-slider;
#X obj 206 123 hsl 110 12 1 20 0 0 \$0-scale \$0-scale-slider-rcv empty
-2 -6 0 10 -1 -258113 -1 0 1;
#X obj 206 156 hsl 110 12 1 200 0 0 \$0-xscale \$0-xscale-slider-rcv
empty -2 -6 0 10 -1 -258113 -1 0 1;
#X obj 206 191 hsl 110 12 0 359 0 0 \$0-rotate \$0-rotate-slider-rcv
empty -2 -6 0 10 -1 -258113 -1 0 1;
#N canvas 0 0 432 485 move-img 0;
#X obj 158 261 scaleXYZ;
#X obj 172 146 * 100;
#X obj 185 199 line;
#X obj 185 222 / 100;
#X msg 172 169 \$1 1000;
#X obj 172 115 int;
#X obj 79 169 scaleXYZ;
#X obj 98 88 r \$0-xscale;
#X obj 172 88 r \$0-scale;
#X obj 77 47 inlet;
#X obj 164 366 outlet;
#X obj 170 335 rotateXYZ;
#X obj 303 275 line;
#X msg 303 249 \$1 1000;
#X obj 303 301 / 10;
#X obj 303 224 * 10;
#X obj 303 197 r \$0-rotate;
#X connect 0 0 11 0;
#X connect 1 0 4 0;
#X connect 2 0 3 0;
#X connect 3 0 0 1;
#X connect 3 0 0 2;
#X connect 4 0 2 0;
#X connect 5 0 1 0;
#X connect 6 0 0 0;
#X connect 7 0 6 1;
#X connect 8 0 5 0;
#X connect 9 0 6 0;
#X connect 11 0 10 0;
#X connect 12 0 14 0;
#X connect 13 0 12 0;
#X connect 14 0 11 3;
#X connect 15 0 13 0;
#X connect 16 0 15 0;
#X restore 802 274 pd move-img;
#N canvas 307 144 450 300 moving 0;
#X obj 235 -28 inlet;
#X obj 234 382 outlet;
#X obj 236 124 translateXYZ;
#X obj 235 332 rotateXYZ;
#X obj 239 -3 r \$0-video-translate-x;
#X obj 281 15 r \$0-video-translate-y;
#X obj 327 33 r \$0-video-translate-z;
#X obj 246 158 r \$0-video-rotate-x;
#X obj 269 177 r \$0-video-rotate-y;
#X obj 287 194 r \$0-video-rotate-z;
#X obj 239 39 s2l;
#X obj 238 20 symbol;
#X obj 238 60 f;
#X obj 281 55 s2l;
#X obj 280 36 symbol;
#X obj 280 76 f;
#X obj 327 74 s2l;
#X obj 326 55 symbol;
#X obj 326 95 f;
#X obj 248 234 s2l;
#X obj 247 215 symbol;
#X obj 247 255 f;
#X obj 275 256 s2l;
#X obj 274 237 symbol;
#X obj 274 277 f;
#X obj 302 277 s2l;
#X obj 301 258 symbol;
#X obj 301 298 f;
#X connect 0 0 2 0;
#X connect 2 0 3 0;
#X connect 3 0 1 0;
#X connect 4 0 11 0;
#X connect 5 0 14 0;
#X connect 6 0 17 0;
#X connect 7 0 20 0;
#X connect 8 0 23 0;
#X connect 9 0 26 0;
#X connect 10 0 12 0;
#X connect 11 0 10 0;
#X connect 12 0 2 1;
#X connect 13 0 15 0;
#X connect 14 0 13 0;
#X connect 15 0 2 2;
#X connect 16 0 18 0;
#X connect 17 0 16 0;
#X connect 18 0 2 3;
#X connect 19 0 21 0;
#X connect 20 0 19 0;
#X connect 21 0 3 1;
#X connect 22 0 24 0;
#X connect 23 0 22 0;
#X connect 24 0 3 2;
#X connect 25 0 27 0;
#X connect 26 0 25 0;
#X connect 27 0 3 3;
#X restore 802 249 pd moving;
#X obj 293 73 r \$0-video-effect-popup;
#X obj 780 110 declare -path ../../utils/pdmtl;
#X obj 760 -94 import sfruit;
#X obj 760 -67 import moocow;
#X obj 759 -43 import tof;
#N canvas 86 279 822 407 effect_panel 0;
#N canvas 236 55 450 300 popup 0;
#X msg 46 207 name select_effect;
#X msg 56 236 bgcolour #005252;
#X obj 19 54 loadbang;
#X obj 19 262 s \$0-video-effect-popup;
#X msg 19 101 options BackLight Bloom Burn Chromium Overlay DirBlur
Dodge Exclusion fishEye GausBlur Glow Kaleidoscope LumaOffset PanSpinZoom
Posterize RectDistort Slide Smear Solarize Squash Noise Stretch Tile
TimeSlice TimeWarp;
#X connect 0 0 3 0;
#X connect 1 0 3 0;
#X connect 2 0 4 0;
#X connect 2 0 0 0;
#X connect 2 0 1 0;
#X connect 4 0 3 0;
#X restore 27 13 pd popup;
#X text 79 11 this is for popup gui element;
#X obj 344 121 inlet;
#X obj 229 265 outlet;
#N canvas 0 23 1257 678 freeframe 0;
#X obj 42 663 outlet;
#X obj -82 94 sel 1;
#X msg -87 114 0.5 0 1;
#X obj -87 133 unpack 0 0 0;
#X obj 31 115 pix_freeframe freeframe/BackLightVFX;
#X obj 38 141 pix_freeframe freeframe/BloomVFX;
#X obj 42 166 pix_freeframe freeframe/BurnVFX;
#X obj 135 308 pix_freeframe freeframe/DodgeVFX;
#X obj 470 340 pix_freeframe freeframe/GlowVFX;
#X obj 45 192 pix_freeframe freeframe/ChromiumVFX;
#X obj 683 -170 inlet;
#X obj 980 -124 + 1;
#X obj 52 219 pix_freeframe freeframe/DeInterlaceVFX;
#X obj 115 285 pix_freeframe freeframe/DirectionalBlurVFX;
#X obj 147 332 pix_freeframe freeframe/ExclusionVFX;
#X obj 159 357 pix_freeframe freeframe/FishEyeVFX;
#X obj 175 377 pix_freeframe freeframe/GaussianBlurVFX;
#X obj 482 365 pix_freeframe freeframe/KaleidascopeVFX;
#X obj 497 388 pix_freeframe freeframe/LumaOffsetVFX;
#X obj 537 433 pix_freeframe freeframe/PosterizeVFX;
#X obj 722 543 pix_freeframe freeframe/SmearVFX;
#X obj 742 567 pix_freeframe freeframe/SolarizeVFX;
#X obj 756 589 pix_freeframe freeframe/SquashVFX;
#X obj 983 593 pix_freeframe freeframe/StaticVFX;
#X obj 1002 616 pix_freeframe freeframe/StretchVFX;
#X obj 1020 643 pix_freeframe freeframe/TileVFX;
#X obj 1045 669 pix_freeframe freeframe/TimeSliceVFX;
#X obj 1067 692 pix_freeframe freeframe/TimeWarpVFX;
#X obj 829 -66 - 5;
#X obj 949 -69 - 10;
#X obj 1190 -72 - 20;
#X obj 33 82 gate 5;
#X obj 116 260 gate 5;
#X obj 466 312 gate 5;
#X obj 692 469 gate 5;
#X obj 712 -43 ../router/between;
#X obj 827 -46 ../router/between;
#X obj 949 -48 ../router/between;
#X obj 1066 -48 ../router/between;
#X obj 983 570 gate 5;
#X obj 1191 -49 ../router/between;
#X obj 168 -131 + 1;
#X obj 37 -78 - 5;
#X obj 149 -77 - 10;
#X obj 265 -76 - 15;
#X obj 376 -80 - 20;
#X obj 204 32 gate 5;
#X obj 349 228 gate 5;
#X obj 650 273 gate 5;
#X obj 875 373 gate 5;
#X obj -87 -51 ../router/between;
#X obj 37 -53 ../router/between;
#X obj 149 -52 ../router/between;
#X obj 265 -52 ../router/between;
#X obj 1161 444 gate 5;
#X obj 376 -55 ../router/between;
#X obj 513 -100 r \$0-video-effect-slider;
#X obj 520 411 pix_freeframe freeframe/PanSpinZoomVFX;
#X obj 694 496 pix_freeframe freeframe/RectDistortVFX;
#X obj 708 520 pix_freeframe freeframe/SlideVFX;
#X text 1073 -121 >> video in;
#X obj 1066 -70 - 15;
#X obj 282 -139 print ggg;
#X obj 980 -146 r \$0-video-effect-selection;
#X obj 167 -173 r \$0-video-effect-selection;
#X obj 192 -87 print number;
#X connect 1 0 2 0;
#X connect 2 0 3 0;
#X connect 3 0 5 1;
#X connect 3 1 5 2;
#X connect 3 1 5 3;
#X connect 3 2 5 4;
#X connect 4 0 0 0;
#X connect 5 0 0 0;
#X connect 6 0 0 0;
#X connect 7 0 0 0;
#X connect 8 0 0 0;
#X connect 9 0 0 0;
#X connect 10 0 31 1;
#X connect 10 0 32 1;
#X connect 10 0 33 1;
#X connect 10 0 34 1;
#X connect 10 0 39 1;
#X connect 11 0 28 0;
#X connect 11 0 29 0;
#X connect 11 0 30 0;
#X connect 11 0 35 0;
#X connect 11 0 61 0;
#X connect 12 0 0 0;
#X connect 13 0 0 0;
#X connect 14 0 0 0;
#X connect 15 0 0 0;
#X connect 16 0 0 0;
#X connect 17 0 0 0;
#X connect 18 0 0 0;
#X connect 19 0 0 0;
#X connect 20 0 0 0;
#X connect 21 0 0 0;
#X connect 22 0 0 0;
#X connect 23 0 0 0;
#X connect 24 0 0 0;
#X connect 25 0 0 0;
#X connect 26 0 0 0;
#X connect 27 0 0 0;
#X connect 28 0 36 0;
#X connect 29 0 37 0;
#X connect 30 0 40 0;
#X connect 31 0 4 0;
#X connect 31 1 5 0;
#X connect 31 2 6 0;
#X connect 31 3 9 0;
#X connect 31 4 12 0;
#X connect 32 0 13 0;
#X connect 32 1 7 0;
#X connect 32 2 14 0;
#X connect 32 3 15 0;
#X connect 32 4 16 0;
#X connect 33 0 8 0;
#X connect 33 1 17 0;
#X connect 33 2 18 0;
#X connect 33 3 57 0;
#X connect 33 4 19 0;
#X connect 34 0 58 0;
#X connect 34 1 59 0;
#X connect 34 2 20 0;
#X connect 34 3 21 0;
#X connect 34 4 22 0;
#X connect 35 0 31 0;
#X connect 36 0 32 0;
#X connect 37 0 33 0;
#X connect 38 0 34 0;
#X connect 39 0 23 0;
#X connect 39 1 24 0;
#X connect 39 2 25 0;
#X connect 39 3 26 0;
#X connect 39 4 27 0;
#X connect 40 0 39 0;
#X connect 41 0 42 0;
#X connect 41 0 43 0;
#X connect 41 0 44 0;
#X connect 41 0 45 0;
#X connect 41 0 50 0;
#X connect 41 0 65 0;
#X connect 42 0 51 0;
#X connect 43 0 52 0;
#X connect 44 0 53 0;
#X connect 45 0 55 0;
#X connect 46 0 4 1;
#X connect 46 1 5 5;
#X connect 46 1 5 6;
#X connect 46 1 1 0;
#X connect 46 3 9 2;
#X connect 46 3 9 4;
#X connect 46 4 12 1;
#X connect 47 0 13 1;
#X connect 47 0 13 2;
#X connect 47 3 15 1;
#X connect 47 4 16 1;
#X connect 48 0 8 1;
#X connect 48 1 17 1;
#X connect 48 2 18 1;
#X connect 48 2 18 2;
#X connect 48 2 18 3;
#X connect 48 2 18 4;
#X connect 48 3 57 3;
#X connect 48 3 57 4;
#X connect 48 4 19 1;
#X connect 49 0 58 2;
#X connect 49 0 58 3;
#X connect 49 0 58 4;
#X connect 49 0 58 8;
#X connect 49 1 59 1;
#X connect 49 1 59 2;
#X connect 49 1 59 5;
#X connect 49 2 20 1;
#X connect 49 3 21 1;
#X connect 49 4 22 2;
#X connect 50 0 46 0;
#X connect 51 0 47 0;
#X connect 52 0 48 0;
#X connect 53 0 49 0;
#X connect 54 0 23 1;
#X connect 54 0 23 2;
#X connect 54 1 24 8;
#X connect 54 1 24 9;
#X connect 54 2 25 1;
#X connect 54 2 25 2;
#X connect 54 3 26 1;
#X connect 54 3 26 2;
#X connect 54 4 27 1;
#X connect 55 0 54 0;
#X connect 56 0 46 1;
#X connect 56 0 47 1;
#X connect 56 0 48 1;
#X connect 56 0 49 1;
#X connect 56 0 54 1;
#X connect 57 0 0 0;
#X connect 58 0 0 0;
#X connect 59 0 0 0;
#X connect 61 0 38 0;
#X connect 63 0 11 0;
#X connect 64 0 41 0;
#X connect 64 0 62 0;
#X restore 317 252 pd freeframe;
#X obj 246 175 gate 2;
#X obj 250 142 + 1;
#X obj 149 224 tgl 15 0 empty empty empty 17 7 0 10 -262144 -1 -1 0
1;
#N canvas 153 41 629 393 effect_button 0;
#X obj 481 -142 loadbang;
#X msg 373 4 set -activebackground #005252;
#X obj 347 -96 sel 0 1;
#X obj 349 -119 tgl 15 0 empty empty empty 0 -6 0 10 -262144 -1 -1
0 1;
#X msg 476 -114 0;
#X msg 437 44 -width 3;
#X msg 349 -57 -bg grey -text effect;
#X msg 365 -30 -bg #005252 -text effect;
#X obj 511 -74 del 1000;
#X obj 333 -143 r \$0-video-effect-state;
#X obj 338 102 s \$0-video-effect-button;
#X obj 281 -42 outlet;
#X obj 42 124 ../device/midiLearn/2b2o;
#X obj 44 101 r \$0-video-effect-state-slider;
#X obj 43 146 s \$0-video-effect-state-midi;
#X obj 125 -193 r \$0-video-effect-state-midi;
#X obj 522 105 r midi-\$0-video-effect-state;
#X obj 302 137 ../device/midiLearn/midiOpen 0 1 \$0-video-effect-state
;
#X connect 0 0 1 0;
#X connect 0 0 6 0;
#X connect 0 0 4 0;
#X connect 0 0 5 0;
#X connect 0 0 8 0;
#X connect 1 0 10 0;
#X connect 2 0 6 0;
#X connect 2 1 7 0;
#X connect 2 1 17 0;
#X connect 3 0 2 0;
#X connect 3 0 11 0;
#X connect 4 0 3 0;
#X connect 5 0 10 0;
#X connect 6 0 10 0;
#X connect 7 0 10 0;
#X connect 8 0 6 0;
#X connect 9 0 3 0;
#X connect 12 0 14 0;
#X connect 13 0 12 0;
#X connect 15 0 3 0;
#X connect 16 0 17 1;
#X restore 246 113 pd effect_button;
#X obj 124 180 initbang;
#X msg 115 203 1;
#X connect 2 0 5 1;
#X connect 4 0 3 0;
#X connect 5 0 3 0;
#X connect 5 1 4 0;
#X connect 6 0 5 0;
#X connect 7 0 6 0;
#X connect 8 0 6 0;
#X connect 9 0 10 0;
#X connect 10 0 5 0;
#X restore 802 373 pd effect_panel;
#X obj 200 221 bng 10 250 50 0 empty empty empty 17 7 0 10 -99865 -1
-1;
#X msg 156 210 0 0 0;
#X obj 117 183 unpack 0 0 0;
#X obj 241 -18 r \$0-video-scale-rcv;
#X obj 231 -44 r \$0-video-xscale-rcv;
#X obj 229 -70 r \$0-video-rotate-rcv;
#X obj 213 31 r \$0-video-reset-bang-rcv;
#X obj 780 129 declare -path patches/gui/mediagrid/;
#X obj 115 111 mg 1 1;
#X connect 4 0 22 0;
#X connect 5 0 24 0;
#X connect 6 0 26 0;
#X connect 9 0 29 0;
#X connect 14 0 18 0;
#X connect 15 0 16 0;
#X connect 16 0 43 0;
#X connect 18 0 37 0;
#X connect 19 0 21 0;
#X connect 20 0 19 0;
#X connect 21 0 52 0;
#X connect 23 0 4 0;
#X connect 25 0 5 0;
#X connect 26 0 28 0;
#X connect 29 0 30 0;
#X connect 32 0 2 0;
#X connect 36 0 15 0;
#X connect 37 0 36 0;
#X connect 43 0 17 0;
#X connect 44 0 45 0;
#X connect 45 0 46 0;
#X connect 46 0 33 0;
#X connect 46 1 34 0;
#X connect 46 2 35 0;
#X connect 47 0 33 0;
#X connect 48 0 34 0;
#X connect 49 0 35 0;
#X connect 50 0 44 0;
#X coords 0 -1 1 1 460 170 1 100 100;
