#N canvas 0 24 1009 501 10;
#X declare -lib py;
#X obj 756 -23 cnv 15 370 150 empty empty GUI_element 20 12 0 14 -233017
-66577 0;
#X obj 756 157 cnv 15 370 380 empty empty ENGINE_ELEMENT 20 12 0 14
-233017 -66577 0;
#N canvas 11 24 428 470 change_color_canvas 0;
#N canvas 21 259 606 448 RGB_____________ 0;
#X obj 233 133 inlet;
#X obj 262 53 inlet;
#X obj 339 55 inlet;
#X obj 405 56 inlet;
#X obj 249 385 outlet;
#X text 267 28 red;
#X text 337 30 green;
#X text 409 30 blue;
#X obj 405 102 t b f;
#X obj 339 160 +;
#X obj 339 185 t b f;
#X obj 339 216 +;
#X obj 296 385 outlet;
#X obj 296 361 f;
#X obj 249 361 f;
#X obj 262 79 * -65536;
#X obj 339 80 * -256;
#X obj 405 80 * -1;
#X obj 339 247 - 1;
#X obj 235 168 t b b b;
#X connect 0 0 19 0;
#X connect 1 0 15 0;
#X connect 2 0 16 0;
#X connect 3 0 17 0;
#X connect 8 0 9 0;
#X connect 8 1 9 1;
#X connect 9 0 10 0;
#X connect 10 0 11 0;
#X connect 10 1 11 1;
#X connect 11 0 18 0;
#X connect 13 0 12 0;
#X connect 14 0 4 0;
#X connect 15 0 11 0;
#X connect 16 0 9 0;
#X connect 17 0 8 0;
#X connect 18 0 14 1;
#X connect 19 0 14 0;
#X connect 19 1 13 0;
#X connect 19 2 18 0;
#X restore 209 -46 pd RGB_____________;
#X text 251 -95 red;
#X text 287 -96 green;
#X text 335 -96 blue;
#X obj 218 -13 pack 0 0;
#X obj 210 -110 t b b b b;
#X msg 283 -70 0;
#X obj 245 -355 r \$0-key-selection;
#X obj 251 -302 list-fifo;
#X obj 248 -331 t b a;
#X obj 250 -278 s2l;
#X obj 70 -273 del 100;
#X msg 71 -253 color -9.86895e+06 0;
#X msg 217 12 color \$1 \$2;
#X obj 249 -243 sel 0 1 2;
#X msg 228 -177 1 2;
#X msg 268 -185 0 2;
#X msg 301 -185 0 1;
#X obj 204 -202 t b b;
#X obj 243 -208 t b b;
#X obj 301 -206 t b b;
#X obj 247 -140 s gui-canvas-unselect;
#X obj 69 -229 s \$0-gui-canvas;
#X obj 216 33 s \$0-gui-canvas;
#X obj 68 -293 initbang;
#X msg 246 -72 255;
#X msg 320 -71 0;
#X obj 364 -287 print;
#X obj 43 -52 s \$0-text-key-mouse;
#X msg 54 -83 1;
#X connect 0 0 4 0;
#X connect 0 1 4 1;
#X connect 4 0 13 0;
#X connect 5 0 0 0;
#X connect 5 0 29 0;
#X connect 5 1 25 0;
#X connect 5 2 6 0;
#X connect 5 3 26 0;
#X connect 6 0 0 2;
#X connect 7 0 9 0;
#X connect 7 0 27 0;
#X connect 8 0 10 0;
#X connect 9 0 8 0;
#X connect 9 1 8 1;
#X connect 10 0 14 0;
#X connect 11 0 12 0;
#X connect 12 0 22 0;
#X connect 13 0 23 0;
#X connect 14 0 18 0;
#X connect 14 1 19 0;
#X connect 14 2 20 0;
#X connect 15 0 21 0;
#X connect 16 0 21 0;
#X connect 17 0 21 0;
#X connect 18 0 5 0;
#X connect 18 1 15 0;
#X connect 19 0 5 0;
#X connect 19 1 16 0;
#X connect 20 0 5 0;
#X connect 20 1 17 0;
#X connect 24 0 11 0;
#X connect 25 0 0 1;
#X connect 26 0 0 3;
#X connect 29 0 28 0;
#X restore 759 83 pd change_color_canvas;
#N canvas 443 131 581 420 colorize 0;
#X obj 52 177 colorRGB;
#X obj 39 73 inlet;
#X obj 54 210 outlet;
#X obj 35 102 alpha;
#X msg 156 165 1;
#X obj 103 136 r \$0-text-alpha;
#X obj 79 61 r \$0-text-color-r;
#X obj 95 81 r \$0-text-color-g;
#X obj 108 100 r \$0-text-color-b;
#X connect 0 0 2 0;
#X connect 1 0 3 0;
#X connect 3 0 0 0;
#X connect 4 0 0 4;
#X connect 5 0 0 4;
#X connect 6 0 0 1;
#X connect 7 0 0 2;
#X connect 8 0 0 3;
#X restore 799 224 pd colorize;
#N canvas 307 195 450 300 __init__ 0;
#X obj 213 190 s \$0-video-alpha;
#X msg 181 116 0;
#X obj 88 188 s me;
#X msg 115 123 \$0;
#X obj 25 120 s \$0-init;
#X obj 138 219 getdollarzero;
#X obj 133 184 bng 15 250 50 0 empty empty empty 17 7 0 10 -262144
-1 -1;
#X obj 91 259 s \$0-id;
#X obj 180 43 initbang;
#X obj 363 91 import py;
#X connect 1 0 0 0;
#X connect 3 0 2 0;
#X connect 3 0 7 0;
#X connect 5 0 2 0;
#X connect 6 0 5 0;
#X connect 8 0 1 0;
#X connect 8 0 3 0;
#X connect 8 0 4 0;
#X restore 760 49 pd __init__;
#X obj 282 523 list prepend \$0;
#N canvas 105 90 202 382 \$0-clock_assign 0;
#X obj -92 -25 cnv 15 200 380 empty empty CLOCK_ASSIGN 20 12 1 22 -1
-262144 0;
#N canvas 335 100 450 300 (subpatch) 0;
#X msg 254 48 0;
#X obj 80 56 bng 15 250 50 0 empty empty empty 0 -6 0 10 -262144 -1
-1;
#X msg 230 2 options master half quarter manual;
#X obj 242 227 + 1;
#X obj 222 275 sel 1;
#X msg 213 306 0;
#X floatatom 181 289 5 0 0 0 - - -;
#X obj 196 228 i 1;
#X obj 197 161 spigot 0;
#X obj 127 18 tgl 27 0 empty empty empty 17 7 0 10 -1 -258113 -1 0
1;
#X obj 2 17 popup 124 25 #ffffff popup master half quarter manual;
#X obj 63 2 cnv 15 89 20 empty empty empty 20 12 0 14 -1 -66577 0;
#X obj 2 2 cnv 15 70 44 empty empty alpa 20 8 0 20 -128992 -258113
0;
#X obj 194 102 ../router/master_router;
#X obj 176 329 s \$0-text-alpha-slider;
#X obj 270 81 loadbang;
#X connect 0 0 10 0;
#X connect 2 0 10 0;
#X connect 3 0 7 1;
#X connect 4 0 5 0;
#X connect 5 0 7 1;
#X connect 6 0 14 0;
#X connect 7 0 3 0;
#X connect 7 0 4 0;
#X connect 7 0 6 0;
#X connect 8 0 7 0;
#X connect 9 0 8 1;
#X connect 10 0 13 0;
#X connect 13 0 8 0;
#X connect 15 0 0 0;
#X coords 0 1 100 -1 157 45 1 0 0;
#X restore -72 23 graph;
#N canvas 517 93 471 520 (subpatch) 0;
#X msg 254 48 0;
#X msg 263 75 options master half quarter manual;
#X obj 127 18 tgl 27 0 empty empty empty 17 7 0 10 -1 -258113 -1 0
1;
#X obj 2 17 popup 124 25 #ffffff popup master half quarter manual;
#X obj 63 2 cnv 15 89 20 empty empty empty 20 12 0 14 -1 -66577 0;
#X obj 2 2 cnv 15 70 44 empty empty size 20 8 0 20 -128992 -258113
0;
#X obj 85 262 bng 15 250 50 0 empty empty empty 0 -6 0 10 -262144 -1
-1;
#X obj 85 230 spigot 0;
#X obj 57 145 ../router/master_router;
#X obj 248 22 initbang;
#X obj 83 292 random 100;
#X obj 85 323 s \$0-text-size-slider;
#X connect 0 0 3 0;
#X connect 1 0 3 0;
#X connect 2 0 7 1;
#X connect 3 0 8 0;
#X connect 6 0 10 0;
#X connect 7 0 6 0;
#X connect 8 0 7 0;
#X connect 9 0 0 0;
#X connect 10 0 11 0;
#X coords 0 1 100 -1 157 45 1 0 0;
#X restore -72 68 graph;
#N canvas 0 0 450 300 (subpatch) 0;
#X obj 248 22 initbang;
#X msg 254 48 0;
#X msg 263 75 options master half quarter manual;
#X msg 255 47 0;
#X msg 264 74 options master half quarter manual;
#X obj 128 17 tgl 27 0 empty empty empty 17 7 0 10 -1 -258113 -1 0
1;
#X obj 3 16 popup 124 25 #ffffff popup master half quarter manual;
#X obj 64 1 cnv 15 89 20 empty empty empty 20 12 0 14 -1 -66577 0;
#X obj 3 1 cnv 15 70 44 empty empty transX 8 8 0 20 -128992 -258113
0;
#X obj 106 147 spigot 0;
#X obj 197 85 r midiLearn;
#X obj 196 106 expr 1-$f1;
#X obj 160 128 spigot 1;
#X obj 56 72 ../router/master_router;
#X obj 249 21 initbang;
#X obj 108 304 s \$0-text-transx-slider;
#X obj 107 209 random 10;
#X obj 112 255 / 10;
#X connect 0 0 1 0;
#X connect 3 0 6 0;
#X connect 4 0 6 0;
#X connect 5 0 9 1;
#X connect 6 0 13 0;
#X connect 9 0 16 0;
#X connect 10 0 11 0;
#X connect 11 0 12 1;
#X connect 12 0 9 1;
#X connect 13 0 9 0;
#X connect 14 0 3 0;
#X connect 16 0 17 0;
#X connect 17 0 15 0;
#X coords 0 1 100 -1 157 45 1 0 0;
#X restore -72 113 graph;
#N canvas 0 0 450 300 (subpatch) 0;
#X obj 248 22 initbang;
#X msg 254 48 0;
#X msg 263 75 options master half quarter manual;
#X msg 255 47 0;
#X msg 264 74 options master half quarter manual;
#X obj 128 17 tgl 27 0 empty empty empty 17 7 0 10 -1 -258113 -1 0
1;
#X obj 3 16 popup 124 25 #ffffff popup master half quarter manual;
#X obj 64 1 cnv 15 89 20 empty empty empty 20 12 0 14 -1 -66577 0;
#X obj 3 1 cnv 15 70 44 empty empty transY 8 8 0 20 -128992 -258113
0;
#X obj 106 147 spigot 0;
#X obj 197 85 r midiLearn;
#X obj 196 106 expr 1-$f1;
#X obj 160 128 spigot 1;
#X obj 56 72 ../router/master_router;
#X obj 249 21 initbang;
#X obj 107 209 random 10;
#X obj 112 255 / 10;
#X obj 108 304 s \$0-text-transy-slider;
#X connect 0 0 1 0;
#X connect 3 0 6 0;
#X connect 4 0 6 0;
#X connect 5 0 9 1;
#X connect 6 0 13 0;
#X connect 9 0 15 0;
#X connect 10 0 11 0;
#X connect 11 0 12 1;
#X connect 12 0 9 1;
#X connect 13 0 9 0;
#X connect 14 0 3 0;
#X connect 15 0 16 0;
#X connect 16 0 17 0;
#X coords 0 1 100 -1 157 45 1 0 0;
#X restore -72 158 graph;
#N canvas 0 0 450 300 (subpatch) 0;
#X obj 248 22 initbang;
#X msg 254 48 0;
#X msg 263 75 options master half quarter manual;
#X msg 255 47 0;
#X msg 264 74 options master half quarter manual;
#X obj 128 17 tgl 27 0 empty empty empty 17 7 0 10 -1 -258113 -1 0
1;
#X obj 3 16 popup 124 25 #ffffff popup master half quarter manual;
#X obj 64 1 cnv 15 89 20 empty empty empty 20 12 0 14 -1 -66577 0;
#X obj 3 1 cnv 15 70 44 empty empty rotX 8 8 0 20 -128992 -258113 0
;
#X obj 106 147 spigot 0;
#X obj 197 85 r midiLearn;
#X obj 196 106 expr 1-$f1;
#X obj 160 128 spigot 1;
#X obj 56 72 ../router/master_router;
#X obj 249 21 initbang;
#X obj 107 209 random 360;
#X obj 108 304 s \$0-text-rotx-slider;
#X connect 0 0 1 0;
#X connect 3 0 6 0;
#X connect 4 0 6 0;
#X connect 5 0 9 1;
#X connect 6 0 13 0;
#X connect 9 0 15 0;
#X connect 10 0 11 0;
#X connect 11 0 12 1;
#X connect 12 0 9 1;
#X connect 13 0 9 0;
#X connect 14 0 3 0;
#X connect 15 0 16 0;
#X coords 0 1 100 -1 157 45 1 0 0;
#X restore -72 204 graph;
#N canvas 0 0 450 300 (subpatch) 0;
#X obj 248 22 initbang;
#X msg 254 48 0;
#X msg 263 75 options master half quarter manual;
#X msg 255 47 0;
#X msg 264 74 options master half quarter manual;
#X obj 128 17 tgl 27 0 empty empty empty 17 7 0 10 -1 -258113 -1 0
1;
#X obj 3 16 popup 124 25 #ffffff popup master half quarter manual;
#X obj 64 1 cnv 15 89 20 empty empty empty 20 12 0 14 -1 -66577 0;
#X obj 3 1 cnv 15 70 44 empty empty rotY 8 8 0 20 -128992 -258113 0
;
#X obj 106 147 spigot 0;
#X obj 197 85 r midiLearn;
#X obj 196 106 expr 1-$f1;
#X obj 160 128 spigot 1;
#X obj 56 72 ../router/master_router;
#X obj 249 21 initbang;
#X obj 107 209 random 360;
#X obj 108 304 s \$0-text-roty-slider;
#X connect 0 0 1 0;
#X connect 3 0 6 0;
#X connect 4 0 6 0;
#X connect 5 0 9 1;
#X connect 6 0 13 0;
#X connect 9 0 15 0;
#X connect 10 0 11 0;
#X connect 11 0 12 1;
#X connect 12 0 9 1;
#X connect 13 0 9 0;
#X connect 14 0 3 0;
#X connect 15 0 16 0;
#X coords 0 1 100 -1 157 45 1 0 0;
#X restore -72 249 graph;
#N canvas 0 0 450 300 (subpatch) 0;
#X obj 248 22 initbang;
#X msg 254 48 0;
#X msg 263 75 options master half quarter manual;
#X msg 255 47 0;
#X msg 264 74 options master half quarter manual;
#X obj 128 17 tgl 27 0 empty empty empty 17 7 0 10 -1 -258113 -1 0
1;
#X obj 3 16 popup 124 25 #ffffff popup master half quarter manual;
#X obj 64 1 cnv 15 89 20 empty empty empty 20 12 0 14 -1 -66577 0;
#X obj 3 1 cnv 15 70 44 empty empty rotZ 8 8 0 20 -128992 -258113 0
;
#X obj 106 147 spigot 0;
#X obj 197 85 r midiLearn;
#X obj 196 106 expr 1-$f1;
#X obj 160 128 spigot 1;
#X obj 56 72 ../router/master_router;
#X obj 249 21 initbang;
#X obj 107 209 random 360;
#X obj 108 304 s \$0-text-rotz-slider;
#X connect 0 0 1 0;
#X connect 3 0 6 0;
#X connect 4 0 6 0;
#X connect 5 0 9 1;
#X connect 6 0 13 0;
#X connect 9 0 15 0;
#X connect 10 0 11 0;
#X connect 11 0 12 1;
#X connect 12 0 9 1;
#X connect 13 0 9 0;
#X connect 14 0 3 0;
#X connect 15 0 16 0;
#X coords 0 1 100 -1 157 45 1 0 0;
#X restore -72 294 graph;
#X restore 83 556 pd \$0-clock_assign;
#X msg 330 587 \; pd-\$1-clock_assign vis 1;
#X obj 405 510 list prepend \$0;
#N canvas 134 114 202 383 \$0-audio_assign 0;
#X obj -68 -9 cnv 15 200 380 empty empty AUDIO_ASSIGN 20 12 1 22 -1
-262144 0;
#N canvas 335 100 450 300 (subpatch) 0;
#X msg 254 48 0;
#X obj 80 56 bng 15 250 50 0 empty empty empty 0 -6 0 10 -262144 -1
-1;
#X obj 242 227 + 1;
#X obj 222 275 sel 1;
#X msg 213 306 0;
#X floatatom 181 289 5 0 0 0 - - -;
#X obj 196 228 i 1;
#X obj 197 161 spigot 0;
#X obj 127 18 tgl 27 0 empty empty empty 17 7 0 10 -1 -258113 -1 0
1;
#X obj 2 17 popup 124 25 #ffffff popup bass middle higth;
#X obj 63 2 cnv 15 89 20 empty empty empty 20 12 0 14 -1 -66577 0;
#X obj 2 2 cnv 15 70 44 empty empty alpa 20 8 0 20 -128992 -258113
0;
#X obj 176 329 s \$0-text-alpha-slider;
#X obj 194 102 ../router/audio_router;
#X obj 301 60 loadbang;
#X msg 223 7 options bass middle higth;
#X connect 0 0 9 0;
#X connect 2 0 6 1;
#X connect 3 0 4 0;
#X connect 4 0 6 1;
#X connect 5 0 12 0;
#X connect 6 0 2 0;
#X connect 6 0 3 0;
#X connect 6 0 5 0;
#X connect 7 0 6 0;
#X connect 8 0 7 1;
#X connect 9 0 13 0;
#X connect 13 0 7 0;
#X connect 14 0 0 0;
#X connect 15 0 9 0;
#X coords 0 1 100 -1 157 45 1 0 0;
#X restore -48 39 graph;
#N canvas 329 80 471 514 (subpatch) 0;
#X msg 254 48 0;
#X obj 127 18 tgl 27 0 empty empty empty 17 7 0 10 -1 -258113 -1 0
1;
#X obj 2 17 popup 124 25 #ffffff popup bass middle higth;
#X obj 63 2 cnv 15 89 20 empty empty empty 20 12 0 14 -1 -66577 0;
#X obj 2 2 cnv 15 70 44 empty empty size 20 8 0 20 -128992 -258113
0;
#X obj 85 262 bng 15 250 50 0 empty empty empty 0 -6 0 10 -262144 -1
-1;
#X obj 85 230 spigot 0;
#X obj 248 22 initbang;
#X obj 83 292 random 100;
#X obj 85 323 s \$0-text-size-slider;
#X obj 57 145 ../router/audio_router;
#X msg 232 18 options bass middle higth;
#X connect 0 0 2 0;
#X connect 1 0 6 1;
#X connect 2 0 10 0;
#X connect 5 0 8 0;
#X connect 6 0 5 0;
#X connect 7 0 0 0;
#X connect 8 0 9 0;
#X connect 10 0 6 0;
#X connect 11 0 2 0;
#X coords 0 1 100 -1 157 45 1 0 0;
#X restore -48 84 graph;
#N canvas 0 0 450 300 (subpatch) 0;
#X obj 248 22 initbang;
#X msg 254 48 0;
#X msg 255 47 0;
#X obj 128 17 tgl 27 0 empty empty empty 17 7 0 10 -1 -258113 -1 0
1;
#X obj 3 16 popup 124 25 #ffffff popup bass middle higth;
#X obj 64 1 cnv 15 89 20 empty empty empty 20 12 0 14 -1 -66577 0;
#X obj 3 1 cnv 15 70 44 empty empty transX 8 8 0 20 -128992 -258113
0;
#X obj 106 147 spigot 0;
#X obj 197 85 r midiLearn;
#X obj 196 106 expr 1-$f1;
#X obj 160 128 spigot 1;
#X obj 249 21 initbang;
#X obj 108 304 s \$0-text-transx-slider;
#X obj 107 209 random 10;
#X obj 112 255 / 10;
#X obj 56 72 ../router/audio_router;
#X msg 271 76 options bass middle higth;
#X connect 0 0 1 0;
#X connect 2 0 4 0;
#X connect 3 0 7 1;
#X connect 4 0 15 0;
#X connect 7 0 13 0;
#X connect 8 0 9 0;
#X connect 9 0 10 1;
#X connect 10 0 7 1;
#X connect 11 0 2 0;
#X connect 13 0 14 0;
#X connect 14 0 12 0;
#X connect 15 0 7 0;
#X connect 16 0 4 0;
#X coords 0 1 100 -1 157 45 1 0 0;
#X restore -48 129 graph;
#N canvas 0 0 450 300 (subpatch) 0;
#X msg 294 56 0;
#X obj 128 17 tgl 27 0 empty empty empty 17 7 0 10 -1 -258113 -1 0
1;
#X obj 3 16 popup 124 25 #ffffff popup bass middle higth;
#X obj 64 1 cnv 15 89 20 empty empty empty 20 12 0 14 -1 -66577 0;
#X obj 3 1 cnv 15 70 44 empty empty transY 8 8 0 20 -128992 -258113
0;
#X obj 106 147 spigot 0;
#X obj 197 85 r midiLearn;
#X obj 196 106 expr 1-$f1;
#X obj 160 128 spigot 1;
#X obj 324 1 initbang;
#X obj 107 209 random 10;
#X obj 112 255 / 10;
#X obj 108 304 s \$0-text-transy-slider;
#X obj 56 72 ../router/audio_router;
#X msg 280 94 options bass middle higth;
#X connect 0 0 2 0;
#X connect 1 0 5 1;
#X connect 2 0 13 0;
#X connect 5 0 10 0;
#X connect 6 0 7 0;
#X connect 7 0 8 1;
#X connect 8 0 5 1;
#X connect 9 0 0 0;
#X connect 10 0 11 0;
#X connect 11 0 12 0;
#X connect 13 0 5 0;
#X connect 14 0 2 0;
#X coords 0 1 100 -1 157 45 1 0 0;
#X restore -48 174 graph;
#N canvas 0 0 450 300 (subpatch) 0;
#X obj 248 22 initbang;
#X msg 254 48 0;
#X msg 255 47 0;
#X obj 128 17 tgl 27 0 empty empty empty 17 7 0 10 -1 -258113 -1 0
1;
#X obj 3 16 popup 124 25 #ffffff popup bass middle higth;
#X obj 64 1 cnv 15 89 20 empty empty empty 20 12 0 14 -1 -66577 0;
#X obj 3 1 cnv 15 70 44 empty empty rotX 8 8 0 20 -128992 -258113 0
;
#X obj 106 147 spigot 0;
#X obj 197 85 r midiLearn;
#X obj 196 106 expr 1-$f1;
#X obj 160 128 spigot 1;
#X obj 249 21 initbang;
#X obj 107 209 random 360;
#X obj 108 304 s \$0-text-rotx-slider;
#X obj 56 72 ../router/audio_router;
#X msg 273 76 options bass middle higth;
#X connect 0 0 1 0;
#X connect 2 0 4 0;
#X connect 3 0 7 1;
#X connect 4 0 14 0;
#X connect 7 0 12 0;
#X connect 8 0 9 0;
#X connect 9 0 10 1;
#X connect 10 0 7 1;
#X connect 11 0 2 0;
#X connect 12 0 13 0;
#X connect 14 0 7 0;
#X connect 15 0 4 0;
#X coords 0 1 100 -1 157 45 1 0 0;
#X restore -48 220 graph;
#N canvas 0 0 450 300 (subpatch) 0;
#X obj 248 22 initbang;
#X msg 254 48 0;
#X msg 255 47 0;
#X obj 128 17 tgl 27 0 empty empty empty 17 7 0 10 -1 -258113 -1 0
1;
#X obj 3 16 popup 124 25 #ffffff popup bass middle higth;
#X obj 64 1 cnv 15 89 20 empty empty empty 20 12 0 14 -1 -66577 0;
#X obj 3 1 cnv 15 70 44 empty empty rotY 8 8 0 20 -128992 -258113 0
;
#X obj 106 147 spigot 0;
#X obj 197 85 r midiLearn;
#X obj 196 106 expr 1-$f1;
#X obj 160 128 spigot 1;
#X obj 249 21 initbang;
#X obj 107 209 random 360;
#X obj 108 304 s \$0-text-roty-slider;
#X obj 56 72 ../router/audio_router;
#X msg 279 61 options bass middle higth;
#X connect 0 0 1 0;
#X connect 2 0 4 0;
#X connect 3 0 7 1;
#X connect 4 0 14 0;
#X connect 7 0 12 0;
#X connect 8 0 9 0;
#X connect 9 0 10 1;
#X connect 10 0 7 1;
#X connect 11 0 2 0;
#X connect 12 0 13 0;
#X connect 14 0 7 0;
#X connect 15 0 4 0;
#X coords 0 1 100 -1 157 45 1 0 0;
#X restore -48 265 graph;
#N canvas 0 0 450 300 (subpatch) 0;
#X obj 248 22 initbang;
#X msg 254 48 0;
#X msg 255 47 0;
#X obj 128 17 tgl 27 0 empty empty empty 17 7 0 10 -1 -258113 -1 0
1;
#X obj 3 16 popup 124 25 #ffffff popup bass middle higth;
#X obj 64 1 cnv 15 89 20 empty empty empty 20 12 0 14 -1 -66577 0;
#X obj 3 1 cnv 15 70 44 empty empty rotZ 8 8 0 20 -128992 -258113 0
;
#X obj 106 147 spigot 0;
#X obj 197 85 r midiLearn;
#X obj 196 106 expr 1-$f1;
#X obj 160 128 spigot 1;
#X obj 249 21 initbang;
#X obj 107 209 random 360;
#X obj 108 304 s \$0-text-rotz-slider;
#X obj 56 72 ../router/audio_router;
#X msg 282 68 options bass middle higth;
#X connect 0 0 1 0;
#X connect 2 0 4 0;
#X connect 3 0 7 1;
#X connect 4 0 14 0;
#X connect 7 0 12 0;
#X connect 8 0 9 0;
#X connect 9 0 10 1;
#X connect 10 0 7 1;
#X connect 11 0 2 0;
#X connect 12 0 13 0;
#X connect 14 0 7 0;
#X connect 15 0 4 0;
#X coords 0 1 100 -1 157 45 1 0 0;
#X restore -48 310 graph;
#X restore 83 585 pd \$0-audio_assign;
#X obj 102 102 cnv 15 455 166 empty \$0-gui-canvas empty 20 12 0 14
-153958 -262144 0;
#X obj 329 182 image images/text.gif;
#X obj 514 122 vsl 20 90 0 1 0 0 \$0-text-alpha \$0-text-alpha-slider
empty 0 -8 0 10 -1 -258113 -1 0 1;
#X obj 501 230 cnv 1 1 1 empty \$0-text-canvas-alpha 100/100 5 12 1
10 -233017 -262144 0;
#X obj 279 221 hsl 120 10 0 1 0 0 empty empty empty -2 -6 0 10 -1 -258113
-1 0 1;
#X obj 280 238 hsl 120 10 0 1 0 0 empty empty empty -2 -6 0 10 -1 -258113
-1 0 1;
#X obj 428 158 bng 10 250 50 0 empty empty empty 0 -6 0 10 -99865 -1
-1;
#X obj 468 121 vsl 20 90 5 100 0 0 empty empty empty 0 -8 0 10 -1 -258113
-1 0 1;
#X obj 468 230 cnv 1 1 1 empty \$0-text-canvas-size 6 5 12 1 10 -233017
-262144 0;
#X obj 197 223 knob 17 17 1 360 0 0 empty empty empty 0 -8 0 8 -262144
-1 -1 0 1;
#X obj 234 119 bng 10 250 50 0 \$0-text-load empty empty 0 -6 0 10
-99865 -1 -1;
#X obj 124 234 bng 10 250 50 0 empty empty empty 0 -6 0 10 -99865 -1
-1;
#X obj 147 234 bng 10 250 50 0 empty empty empty 0 -6 0 10 -99865 -1
-1;
#X obj 279 177 hsl 120 10 0 1 0 0 empty empty empty -2 -6 0 10 -4034
-16662 -1 8900 1;
#X obj 279 167 hsl 120 10 0 1 0 0 t empty empty -2 -6 0 10 -258113
-16662 -1 0 1;
#X obj 279 188 hsl 120 10 0 1 0 0 empty empty empty -2 -6 0 10 -4160
-16662 -1 8900 1;
#X obj 428 115 bng 10 250 50 0 empty empty empty 0 -6 0 10 -99865 -1
-1;
#X obj 235 156 bng 10 250 50 0 \$0-text-send2panel empty empty 17 7
0 10 -99865 -1 -1;
#X obj 171 234 bng 10 250 50 0 empty empty empty 0 -6 0 10 -99865 -1
-1;
#X obj 470 302 s \$0-text-size;
#N canvas 830 25 450 300 slider 0;
#X msg 54 191 label \$1;
#X obj 56 154 makefilename %d;
#X obj 51 77 r \$0-text-size;
#X obj 52 220 s \$0-text-canvas-size;
#X connect 0 0 3 0;
#X connect 1 0 0 0;
#X connect 2 0 1 0;
#X restore 758 107 pd slider size canvas;
#X text 891 108 this control text size canvas title;
#N canvas 498 37 450 300 slider 0;
#X msg 179 212 label \$1;
#X obj 182 94 * 100;
#X obj 181 154 makefilename %d/100;
#X obj 181 68 r \$0-text-alpha;
#X obj 177 241 s \$0-text-canvas-alpha;
#X connect 0 0 4 0;
#X connect 1 0 2 0;
#X connect 2 0 0 0;
#X connect 3 0 1 0;
#X restore 758 23 pd slider alpha canvas;
#X text 917 25 alpha slider and text gui element;
#N canvas 0 0 450 300 movie 0;
#X obj 101 205 gemhead;
#X obj 102 163 dollarg;
#X msg 102 183 set \$1;
#X obj 101 227 outlet;
#X obj 102 144 initbang;
#X connect 0 0 3 0;
#X connect 1 0 2 0;
#X connect 2 0 0 0;
#X connect 4 0 1 0;
#X restore 800 192 pd movie engine;
#N canvas 210 6 434 444 text 0;
#X obj 148 69 inlet;
#X obj 148 169 text3d;
#X obj 189 70 inlet font;
#X obj 262 68 inlet text;
#X obj 338 68 inlet size;
#X floatatom 256 143 5 0 0 0 - - -;
#X msg 329 153 0;
#X msg 288 264 text gemQ;
#X obj 300 201 initbang;
#X connect 0 0 1 0;
#X connect 2 0 1 0;
#X connect 3 0 1 0;
#X connect 4 0 1 1;
#X connect 7 0 1 0;
#X connect 8 0 7 0;
#X restore 797 435 pd text player;
#X obj 357 277 s \$0-text-color-r;
#X obj 355 300 s \$0-text-color-g;
#X obj 355 323 s \$0-text-color-b;
#N canvas 281 61 743 514 txtpanel 0;
#X obj 55 64 keyname Shift_L;
#X msg 140 85 \$1;
#X obj 139 103 route Shift_L;
#X obj 142 124 tgl 15 0 empty empty empty 0 -6 0 10 -262144 -1 -1 0
1;
#X obj 94 143 spigot 0;
#X obj 153 442 outlet;
#X text 250 110 shift_L+return for send text to render chain;
#X obj 95 116 sel 10;
#X obj 95 95 key;
#X msg 125 202 2;
#X text 423 213 clear reander chain;
#X obj 303 209 s text1_clear_only;
#X msg 153 378 text \$1;
#X obj 96 179 t b b;
#X text 153 180 this variable is for text render order;
#X obj 261 329 initbang;
#X msg 249 350 symbol gemQ;
#X obj 125 224 s \$0-text-state;
#X obj 157 265 r \$0-tetxpanel-text;
#X obj 460 199 list;
#X obj 92 294 s \$0-text-send2panel;
#X obj 206 418 print;
#X obj 156 324 t a b;
#X msg 238 375 2;
#X obj 238 397 s \$0-text-state;
#X connect 0 1 1 0;
#X connect 1 0 2 0;
#X connect 2 0 3 0;
#X connect 3 0 4 1;
#X connect 4 0 13 0;
#X connect 7 0 4 0;
#X connect 8 0 7 0;
#X connect 9 0 17 0;
#X connect 12 0 5 0;
#X connect 12 0 21 0;
#X connect 13 0 20 0;
#X connect 13 1 9 0;
#X connect 15 0 16 0;
#X connect 16 0 12 0;
#X connect 18 0 22 0;
#X connect 22 0 12 0;
#X connect 22 1 23 0;
#X connect 23 0 24 0;
#X restore 896 338 pd txtpanel;
#X obj 878 410 r \$0-text-size;
#N canvas 591 83 450 300 translate 0;
#X obj 116 35 inlet;
#X obj 116 149 outlet;
#X obj 115 121 translateXYZ;
#X obj 135 60 r \$0-text-transx;
#X obj 161 78 r \$0-text-transy;
#X obj 183 101 r \$0-text-transz;
#X obj 188 216 r \$0-text-actual-xy;
#X obj 185 247 unpack 0 0;
#X connect 0 0 2 0;
#X connect 2 0 1 0;
#X connect 3 0 2 1;
#X connect 4 0 2 2;
#X connect 5 0 2 3;
#X connect 6 0 7 0;
#X connect 7 0 2 1;
#X connect 7 1 2 2;
#X restore 800 254 pd translate;
#X obj 267 375 s \$0-text-transx;
#X obj 248 429 s \$0-text-transy;
#N canvas 482 24 540 486 font 0;
#N canvas 0 24 986 491 load_font 0;
#X msg 129 166 name font;
#X obj 40 40 bng 15 250 50 0 empty empty empty 0 -6 0 10 -262144 -1
-1;
#X obj 83 223 s \$0-text-font-popup-rcv;
#X msg 67 31 options;
#X obj 81 -22 t b b;
#X obj 80 -45 initbang;
#X obj 263 -38 initbang;
#X obj 262 47 \$0;
#X obj 265 84 s text-pages;
#X obj 263 27 t b b;
#X msg 335 48 \; \$0-text-hradio-number number 1;
#X obj 569 -33 r \$0-text-hradio-page;
#X obj 597 20 * 30;
#X obj 598 47 t f f;
#X obj 630 73 + 30;
#X obj 593 105 f;
#X obj 626 105 f;
#X obj 566 48 \$0;
#X obj 562 84 t f b b;
#X obj 571 155 pack f f f;
#X text 657 106 min/max for load font from fonts.coll;
#X msg 569 203 \; text-font-list \$1 \$2 \$3;
#X obj 570 -4 t b f b;
#X msg 632 -8 0;
#X obj 659 -12 initbang;
#X obj 266 3 del 500;
#X connect 0 0 2 0;
#X connect 3 0 2 0;
#X connect 4 0 3 0;
#X connect 4 1 0 0;
#X connect 5 0 4 0;
#X connect 6 0 25 0;
#X connect 7 0 8 0;
#X connect 9 0 7 0;
#X connect 9 1 10 0;
#X connect 11 0 22 0;
#X connect 12 0 13 0;
#X connect 13 0 15 1;
#X connect 13 1 14 0;
#X connect 14 0 16 1;
#X connect 15 0 19 1;
#X connect 16 0 19 2;
#X connect 17 0 18 0;
#X connect 18 0 19 0;
#X connect 18 1 15 0;
#X connect 18 2 16 0;
#X connect 19 0 21 0;
#X connect 22 0 17 0;
#X connect 22 1 12 0;
#X connect 22 2 4 0;
#X connect 23 0 22 0;
#X connect 24 0 23 0;
#X connect 25 0 9 0;
#X restore 27 38 pd load_font;
#X obj 168 281 l2s;
#X msg 194 266 symbol;
#X text 143 65 with a symbolic element in /tmp/fonts/;
#X obj 178 176 symbol;
#X msg 179 133 set \$1;
#X msg 180 153 TlwgMono-Oblique.ttf;
#X obj 160 146 bng 15 250 50 0 empty empty empty 0 -6 0 10 -262144
-1 -1;
#X obj 160 366 outlet;
#X text 165 94 compose message for pdp_text object [font/size];
#X msg 159 315 font \$1;
#X obj 179 114 r \$0-text-font-popup;
#X obj 175 238 makefilename /tmp/fonts/%s;
#X obj 252 265 initbang;
#X text 138 39 this script links all fonts present in /usr/share/font
;
#X connect 1 0 10 0;
#X connect 2 0 1 1;
#X connect 4 0 12 0;
#X connect 5 0 6 0;
#X connect 5 0 7 0;
#X connect 6 0 4 0;
#X connect 7 0 6 0;
#X connect 10 0 8 0;
#X connect 11 0 5 0;
#X connect 12 0 1 0;
#X connect 13 0 2 0;
#X restore 825 391 pd font;
#X obj 260 63 r \$0-text-font-popup-rcv;
#X obj 377 396 s \$0-text-font-popup;
#X obj 276 115 popup 124 25 #ffffff font comicbd.ttf VeraMoBd.ttf ttf-japanese-gothic.ttf
georgiai.ttf Arial_Bold.ttf UnBatangBold.ttf cour.ttf Arial.ttf Umpush-Light.ttf
Garuda-Oblique.ttf Purisa-Bold.ttf webdings.ttf TlwgTypist-Bold.ttf
TlwgTypist-Oblique.ttf lohit_pa.ttf cmex10.ttf FreeMonoBoldOblique.ttf
LiberationMono-Italic.ttf VL-PGothic-Regular.ttf FreeSerifItalic.ttf
verdanai.ttf KacstOne.ttf FreeSerifBold.ttf Norasi-Italic.ttf LiberationSans-Italic.ttf
TlwgTypo-Bold.ttf MuktiNarrowBold.ttf Verdana_Italic.ttf ariali.ttf
VL-Gothic-Regular.ttf;
#X obj 305 143 hradio 10 1 0 8 \$0-text-hradio-page \$0-text-hradio-number
empty 0 -8 0 10 -99865 -258113 -1 0;
#N canvas 0 0 1009 514 load_text 0;
#X obj 132 395 textfile;
#X msg 116 166 rewind;
#X obj 133 417 symbol;
#X obj 120 -106 openpanel;
#X obj 112 129 t b a;
#X obj 126 501 outlet;
#X text 151 176 it change word every beat;
#X obj 87 396 t b b;
#X obj 15 152 r master_clock;
#X msg 28 174 1;
#X msg 65 173 0;
#X obj 15 222 spigot 0;
#X msg 230 -87 1;
#X text 349 -62 this variable is for to know wich text to render;
#X text 247 87 this is a bash script just to format text;
#X obj 259 232 r text1_actual_xy;
#X obj 259 263 unpack 0 0;
#X text 311 307 creation argument;
#X obj 239 283 pack s 0 0 0 0 0;
#X obj 372 231 r text1_color;
#X obj 344 263 unpack 0 0 0;
#X text 300 325 text-string x y R G B Angle;
#X obj 230 -63 s \$0-text-state;
#X msg 125 473 text \$1;
#X obj 120 -168 r \$0-text-openpanel;
#X obj -59 104 r \$0-text-animation-start;
#X obj -79 82 r \$0-text1-animation-stop;
#X obj -16 314 r \$0-text-animation-clear;
#X obj 121 -144 t b b b;
#X obj 166 -71 \$0;
#X obj 126 9 pack s f;
#X obj 126 30 s text-formattext;
#X obj 112 61 r \$0-text-formatted;
#X obj 113 83 symbol;
#X obj 96 363 bng 15 250 50 0 empty empty empty 17 7 0 10 -262144 -1
-1;
#X msg 242 158 read /tmp/textplayer-1954.txt cr;
#X msg 243 130 set read \$1 cr;
#X obj 123 100 t b s;
#X obj 187 137 del 20;
#X connect 0 0 2 0;
#X connect 0 1 1 0;
#X connect 1 0 0 0;
#X connect 2 0 23 0;
#X connect 3 0 30 0;
#X connect 4 0 1 0;
#X connect 4 1 0 0;
#X connect 7 0 0 0;
#X connect 8 0 11 0;
#X connect 9 0 11 1;
#X connect 10 0 11 1;
#X connect 11 0 7 0;
#X connect 12 0 22 0;
#X connect 15 0 16 0;
#X connect 16 0 18 1;
#X connect 16 1 18 2;
#X connect 19 0 20 0;
#X connect 20 0 18 3;
#X connect 20 1 18 4;
#X connect 20 2 18 5;
#X connect 23 0 5 0;
#X connect 24 0 28 0;
#X connect 25 0 9 0;
#X connect 26 0 10 0;
#X connect 27 0 10 0;
#X connect 28 0 3 0;
#X connect 28 1 29 0;
#X connect 28 2 12 0;
#X connect 29 0 30 1;
#X connect 30 0 31 0;
#X connect 32 0 33 0;
#X connect 33 0 37 0;
#X connect 34 0 0 0;
#X connect 35 0 4 0;
#X connect 36 0 35 0;
#X connect 37 0 38 0;
#X connect 37 1 36 0;
#X connect 38 0 35 0;
#X restore 876 305 pd load_text;
#X text 1052 349 load a txt file;
#X obj 854 364 switch 2;
#X obj 854 280 r \$0-text-state;
#N canvas 571 339 228 171 set_mouse_point 0;
#N canvas 458 24 743 501 XY_coordinates 0;
#X obj 179 103 cnv 15 400 100 empty empty paint_motion_point 20 12
0 14 -228856 -66577 0;
#X obj 154 272 cnv 15 400 440 empty empty get_motion_coordinates_by_couple_(x/y)
20 12 0 14 -228856 -66577 0;
#X obj 395 466 bng 15 250 50 0 empty text1_clear empty 0 -6 0 8 -262144
-1 -1;
#X text 359 453 clear;
#X obj 221 500 list append;
#X obj 376 487 t l;
#X obj 285 471 list prepend;
#X obj 221 593 list split 2;
#X obj 408 649 print second;
#X obj 342 612 t l b;
#X obj 221 568 t l;
#X text 235 306 sequencing coordinates;
#X text 208 323 (see 2* example in list help file);
#X obj 279 365 pack 0 0;
#X msg 360 382 add2 \$1 \$2;
#X msg 353 361 set;
#X obj 253 626 route bang;
#X text 464 420 storage all values for looping;
#X text 402 487 storage old values+new values for sequencing list;
#X obj 362 439 loadbang;
#X text 483 346 when first list finish it go to loop by this one;
#X text 348 693 actual coordinates;
#X msg 176 399 1;
#X msg 213 398 0;
#X obj 163 447 spigot 0;
#X obj 11 341 switch 2;
#X obj 7 260 initbang;
#X msg 12 279 1;
#X obj 16 164 tgl 15 0 empty text1_audio_movement empty 0 -6 0 10 -262144
-1 -1 0 1;
#X obj 13 181 sel 0 1;
#X msg 30 220 2;
#X msg 355 399;
#X obj 276 343 f;
#X obj 312 341 f;
#X obj 256 213 unpack 0 0;
#X obj 400 305 initbang;
#X obj 229 692 s \$0-text-actual-xy;
#X obj 255 653 s \$0-text-sequence-end;
#X obj 422 334 r \$0-text-sequence-end;
#X obj 34 306 r master_clock;
#X obj 64 269 r audio_bass_bang;
#X obj 114 343 r \$0-text-animation-start;
#X obj 114 359 r \$0-text-animation-stop;
#X obj 477 259 r \$0-text-animation-clear;
#X obj 488 301 t b b;
#X obj 277 143 list append \$0;
#X msg 278 166 obj 10 10 point \$1 \$2 \$3;
#N canvas 544 148 450 300 point_visibility 0;
#X obj 179 111 r \$0-text-animation-start;
#X msg 182 140 0;
#X msg 210 136 1;
#X obj 179 84 r \$0-text-animation-stop;
#X obj 183 189 s \$0-point-visibility;
#X obj 46 163 \$0;
#X obj 47 184 print;
#X obj 50 135 bng 15 250 50 0 empty empty empty 17 7 0 10 -262144 -1
-1;
#X connect 0 0 1 0;
#X connect 1 0 4 0;
#X connect 2 0 4 0;
#X connect 3 0 2 0;
#X connect 5 0 6 0;
#X connect 7 0 5 0;
#X restore 449 145 pd point_visibility;
#N canvas 7 353 559 381 clear_point 0;
#X obj 80 -49 r \$0-text-animation-clear;
#X obj 95 121 list prepend \$0;
#X msg 82 82 0;
#X msg 119 80 1;
#X obj 80 -31 t b b b;
#N canvas 0 0 450 300 clear_scene 0;
#X msg 112 39 cut;
#X msg 88 72 editmode 0;
#X obj 112 149 prepend \$0;
#X obj 87 90 prepend \$0;
#X msg 110 173 \; pd-\$1-point \$2;
#X msg 86 108 \; pd-\$1-point \$2 \$3;
#X msg 174 13 selectall;
#X obj 167 46 prepend \$0;
#X msg 166 64 \; pd-\$1-point \$2;
#X obj 91 -21 t b b b;
#X obj 87 -59 inlet;
#X connect 0 0 2 0;
#X connect 1 0 3 0;
#X connect 2 0 4 0;
#X connect 3 0 5 0;
#X connect 6 0 7 0;
#X connect 7 0 8 0;
#X connect 9 0 1 0;
#X connect 9 1 0 0;
#X connect 9 2 6 0;
#X connect 10 0 9 0;
#X restore 95 33 pd clear_scene;
#X msg 96 143 \; pd-\$1-point vis \$2;
#X connect 0 0 4 0;
#X connect 1 0 6 0;
#X connect 2 0 1 0;
#X connect 3 0 1 0;
#X connect 4 0 2 0;
#X connect 4 1 5 0;
#X connect 4 2 3 0;
#X restore 458 116 pd clear_point;
#X obj 252 114 inlet;
#X obj 245 139 t a a;
#X obj 282 186 s pd-\$0-point;
#N canvas 386 203 450 300 \$0-point 0;
#X restore 449 180 pd \$0-point;
#X connect 2 0 6 1;
#X connect 4 0 10 0;
#X connect 5 0 6 1;
#X connect 6 0 5 0;
#X connect 6 0 4 1;
#X connect 7 0 36 0;
#X connect 7 1 9 0;
#X connect 7 1 16 0;
#X connect 9 0 6 0;
#X connect 9 1 2 0;
#X connect 10 0 7 0;
#X connect 13 0 6 0;
#X connect 13 0 14 0;
#X connect 14 0 31 0;
#X connect 15 0 31 0;
#X connect 16 0 37 0;
#X connect 19 0 2 0;
#X connect 22 0 24 1;
#X connect 23 0 24 1;
#X connect 24 0 4 0;
#X connect 25 0 24 0;
#X connect 26 0 27 0;
#X connect 27 0 25 0;
#X connect 28 0 29 0;
#X connect 29 0 27 0;
#X connect 29 1 30 0;
#X connect 30 0 25 0;
#X connect 31 0 6 0;
#X connect 32 0 13 0;
#X connect 33 0 13 1;
#X connect 34 0 32 0;
#X connect 34 1 33 0;
#X connect 35 0 15 0;
#X connect 38 0 31 0;
#X connect 39 0 25 1;
#X connect 40 0 25 2;
#X connect 41 0 22 0;
#X connect 42 0 23 0;
#X connect 43 0 44 0;
#X connect 44 0 15 0;
#X connect 44 1 2 0;
#X connect 45 0 46 0;
#X connect 46 0 51 0;
#X connect 49 0 50 0;
#X connect 50 0 34 0;
#X connect 50 1 45 0;
#X restore 57 4 pd XY_coordinates;
#X obj 56 -25 r \$0-mouse-cord;
#X connect 1 0 0 0;
#X restore 860 483 pd set_mouse_point;
#X obj 165 329 s \$0-text-animation-clear;
#X obj 86 295 s \$0-text-animation-start;
#X obj 287 -15 initbang;
#X obj 281 27 unpack f f f;
#X msg 286 5 1 1 1;
#X obj 171 455 s \$0-text-openpanel;
#X obj 269 353 autoscale -8 8;
#X obj 250 407 autoscale -4 4;
#X msg 267 282 -8 8 -4 4;
#X obj 267 263 initbang;
#X obj 268 302 unpack f f f f;
#X obj 146 420 t b b;
#X obj 144 449 del 50;
#N canvas 487 83 450 300 rotate 0;
#X obj 116 35 inlet;
#X obj 116 149 outlet;
#X obj 135 60 r \$0-text-rotx;
#X obj 115 121 rotateXYZ;
#X obj 161 78 r \$0-text-roty;
#X obj 183 101 r \$0-text-rotz;
#X connect 0 0 3 0;
#X connect 2 0 3 1;
#X connect 3 0 1 0;
#X connect 4 0 3 2;
#X connect 5 0 3 3;
#X restore 799 301 pd rotate;
#X obj 467 361 s \$0-text-rotx;
#X obj 493 379 s \$0-text-roty;
#X obj 515 402 s \$0-text-rotz;
#X obj 221 223 knob 17 17 1 360 0 0 empty empty empty 0 -8 0 8 -262144
-1 -1 0 1;
#X obj 244 223 knob 17 17 1 360 0 0 empty empty empty 0 -8 0 8 -262144
-1 -1 0 1;
#X obj 98 357 s \$0-text-animation-stop;
#X text 215 -151 The size message currently only takes affect after
a save and reopen.;
#X obj 465 -83 symbol;
#X msg 463 -118 boat;
#X msg 466 -62 option cursor \$1;
#X msg 423 -118 clock;
#X msg 559 -118 dot;
#X msg 589 -118 dotbox;
#X msg 636 -118 gumby;
#X msg 679 -118 gobbler;
#X msg 680 -49 pirate;
#X msg 680 -92 mouse;
#X msg 680 -70 target;
#X text 570 -9 for more cursors:;
#X msg 680 -28 pencil;
#X msg 498 -118 coffee_mug;
#X msg 406 535 \; pd-\$1-audio_assign vis 1;
#X obj 449 36 r \$0-text-size-slider;
#X obj 190 -54 r \$0-text-transx-slider;
#X obj 200 -32 r \$0-text-transy-slider;
#X obj 64 -2 r \$0-text-rotx-slider;
#X obj 93 44 r \$0-text-roty-slider;
#X obj 95 23 r \$0-text-rotz-slider;
#X obj 418 229 bng 10 250 50 0 empty empty empty 17 7 0 10 -99865 -1
-1;
#X msg 583 265 0 0 0 0.5 0.5;
#X obj 625 299 unpack f f f f f;
#N canvas 201 70 721 338 mouse 0;
#X obj 214 102 unpack 0 0;
#X obj 222 144 f;
#X obj 257 141 f;
#X obj 241 179 pack 0 0;
#X obj 252 233 s \$0-mouse-cord;
#X obj 298 130 sel 1;
#X obj 304 89 unpack 0 0 0;
#X floatatom 143 148 5 0 0 0 - - -;
#X floatatom 127 80 5 0 0 0 - - -;
#X obj 432 165 r \$0-text-key-mouse;
#X obj 409 239 print;
#X obj 255 202 spigot 0;
#X obj 193 36 r mouse-cord;
#X obj 297 43 r mouse-click;
#X connect 0 0 1 1;
#X connect 0 0 7 0;
#X connect 0 1 2 0;
#X connect 0 1 8 0;
#X connect 1 0 3 0;
#X connect 2 0 3 1;
#X connect 3 0 11 0;
#X connect 5 0 1 0;
#X connect 6 0 5 0;
#X connect 9 0 11 1;
#X connect 11 0 10 0;
#X connect 11 0 4 0;
#X connect 12 0 0 0;
#X connect 13 0 6 0;
#X restore 600 155 pd mouse;
#X obj 40 317 s \$0-tetxpanel-text;
#X obj 21 72 r \$0-text-send2panel;
#X obj 109 118 entry 108 89 grey70 black;
#X connect 3 0 41 0;
#X connect 5 0 7 0;
#X connect 8 0 89 0;
#X connect 14 0 61 0;
#X connect 15 0 60 0;
#X connect 16 0 5 0;
#X connect 17 0 29 0;
#X connect 19 0 68 0;
#X connect 20 0 65 0;
#X connect 21 0 55 0;
#X connect 22 0 73 0;
#X connect 23 0 37 0;
#X connect 24 0 36 0;
#X connect 25 0 38 0;
#X connect 26 0 8 0;
#X connect 28 0 54 0;
#X connect 34 0 3 0;
#X connect 39 0 51 2;
#X connect 40 0 35 3;
#X connect 41 0 67 0;
#X connect 44 0 35 1;
#X connect 45 0 47 0;
#X connect 47 1 46 0;
#X connect 49 0 51 1;
#X connect 51 0 35 2;
#X connect 52 0 51 0;
#X connect 56 0 58 0;
#X connect 57 0 25 0;
#X connect 57 1 23 0;
#X connect 57 2 24 0;
#X connect 58 0 57 0;
#X connect 60 0 42 0;
#X connect 61 0 43 0;
#X connect 62 0 64 0;
#X connect 63 0 62 0;
#X connect 64 0 60 1;
#X connect 64 1 60 2;
#X connect 64 2 61 1;
#X connect 64 3 61 2;
#X connect 65 0 66 0;
#X connect 65 1 59 0;
#X connect 66 0 21 0;
#X connect 67 0 35 0;
#X connect 71 0 69 0;
#X connect 72 0 70 0;
#X connect 75 0 77 0;
#X connect 76 0 75 0;
#X connect 78 0 75 0;
#X connect 79 0 75 0;
#X connect 80 0 75 0;
#X connect 81 0 75 0;
#X connect 82 0 75 0;
#X connect 83 0 75 0;
#X connect 84 0 75 0;
#X connect 85 0 75 0;
#X connect 87 0 75 0;
#X connect 88 0 75 0;
#X connect 90 0 17 0;
#X connect 91 0 15 0;
#X connect 92 0 14 0;
#X connect 93 0 19 0;
#X connect 94 0 71 0;
#X connect 95 0 72 0;
#X connect 96 0 97 0;
#X connect 97 0 98 0;
#X connect 98 0 19 0;
#X connect 98 1 71 0;
#X connect 98 2 72 0;
#X connect 98 3 15 0;
#X connect 98 4 14 0;
#X connect 101 0 102 0;
#X connect 102 0 100 0;
#X coords 0 -1 1 1 460 170 1 100 100;
