#N canvas 0 0 567 437 10;
#X obj 133 60 gemmouse;
#X msg 154 206 set \$1;
#X msg 155 227 71;
#X msg 203 204 set \$1;
#X msg 204 225 2;
#X obj 160 118 sel 1;
#X obj 164 143 t b b;
#X obj 157 350 pack 0 0;
#X obj 157 408 outlet;
#X obj 156 257 autoscale -5 5;
#X obj 198 277 autoscale -4 4;
#X obj 196 303 * -1;
#X obj 329 369;
#X connect 0 0 1 0;
#X connect 0 1 3 0;
#X connect 0 2 5 0;
#X connect 1 0 2 0;
#X connect 2 0 9 0;
#X connect 3 0 4 0;
#X connect 4 0 10 0;
#X connect 5 0 6 0;
#X connect 6 0 2 0;
#X connect 6 1 4 0;
#X connect 7 0 8 0;
#X connect 9 0 7 0;
#X connect 10 0 11 0;
#X connect 11 0 7 1;
