#N canvas 84 43 508 304 10;
#X declare -lib py;
#X obj 4 -10 cnv 15 300 70 empty empty QVideoConverter 20 12 0 14 -233017
-66577 0;
#X obj 3 63 cnv 40 500 70 empty inpath_label empty 70 40 0 14 -228856
-66577 0;
#X obj 23 84 bng 40 250 50 0 inpath empty DIRectory_to_convert -10
-11 0 10 -4034 -1 -258113;
#X obj 3 140 cnv 40 500 70 empty outpath_label empty 70 40 0 14 -228856
-66577 0;
#N canvas 366 270 450 300 (subpatch) 0;
#X obj 3 7 popup 124 25 #ffffff Resolution 320x240 640x480 1024x768
;
#X msg 10 -59 options 320x240 640x480 1024x768;
#X msg 18 -41 name Resolution;
#X obj 112 86 s ratio;
#N canvas 0 1 1278 736 main 0;
#X obj 677 61 dirpanel;
#X obj 624 165 pyext utils converter;
#X obj 678 -4 r inpath;
#X obj 738 38 dirpanel;
#X msg 681 105 \; inpath_label label \$1;
#X obj 738 -4 r outpath;
#X msg 737 68 \; outpath_label label \$1;
#X obj 751 145 r ratio;
#X obj 609 216 f;
#X obj 650 137 once;
#X obj 575 503 loadbang;
#X msg 613 544 \; final_label label;
#X msg 593 580 \; inpath_label label;
#X msg 580 669 \; outpath_label label;
#X obj 574 522 t b b b;
#X msg 606 238 \; final_label label \$1_videos_have_been_converted
;
#X obj 626 62 t b b;
#X msg 422 641 \; converting size \$1 10;
#X obj 421 495 metro 100;
#X obj 422 540 f;
#X obj 448 543 + 1;
#X obj 486 573 sel 220;
#X msg 489 605 10;
#X msg 742 403 \; converting size 0.1 0.1;
#X msg 763 363 \; converting label;
#X msg 432 454 \; converting label Converting...;
#X msg 456 418 \; converting color 13 13 13;
#X obj 417 388 t f b b;
#X msg 780 315 \; converting color 10 10 10;
#X obj 685 200 t b b b;
#X obj 744 197 bng 15 250 50 0 empty empty empty 17 7 0 10 -262144
-1 -1;
#X obj 380 318 r convert;
#X msg 411 363 1;
#X msg 443 364 0;
#X obj 740 272 t b b b b;
#X obj 812 293 s finish;
#X obj 448 329 r finish;
#X obj 371 341 t b b;
#X obj 318 380 del 100;
#X obj 622 107 del 100;
#X connect 0 0 1 2;
#X connect 0 0 4 0;
#X connect 1 0 8 1;
#X connect 1 1 29 0;
#X connect 2 0 0 0;
#X connect 3 0 1 3;
#X connect 3 0 6 0;
#X connect 5 0 3 0;
#X connect 7 0 1 4;
#X connect 8 0 15 0;
#X connect 9 0 1 1;
#X connect 10 0 14 0;
#X connect 14 0 13 0;
#X connect 14 1 12 0;
#X connect 14 2 11 0;
#X connect 16 0 39 0;
#X connect 16 1 11 0;
#X connect 18 0 19 0;
#X connect 19 0 20 0;
#X connect 19 0 17 0;
#X connect 19 0 21 0;
#X connect 20 0 19 1;
#X connect 21 0 22 0;
#X connect 22 0 19 1;
#X connect 27 0 18 0;
#X connect 27 1 25 0;
#X connect 27 2 26 0;
#X connect 29 0 8 0;
#X connect 29 1 9 1;
#X connect 29 2 34 0;
#X connect 30 0 29 0;
#X connect 31 0 37 0;
#X connect 32 0 27 0;
#X connect 33 0 27 0;
#X connect 34 0 23 0;
#X connect 34 1 24 0;
#X connect 34 2 28 0;
#X connect 34 3 35 0;
#X connect 36 0 33 0;
#X connect 37 0 38 0;
#X connect 37 1 32 0;
#X connect 38 0 16 0;
#X connect 39 0 9 0;
#X restore 286 60 pd main;
#X obj 315 19 import py;
#X connect 0 1 3 0;
#X connect 1 0 0 0;
#X connect 2 0 0 0;
#X coords 0 1 100 -1 130 40 1 0 0;
#X restore 339 13 graph;
#X obj 306 -10 cnv 20 198 70 inpath empty Resolution 40 12 0 14 -233017
-66577 0;
#X obj 25 159 bng 40 250 50 0 outpath empty OUTput_directory -10 -11
0 10 -4160 -1 -258113;
#X obj 3 215 cnv 40 500 70 empty final_label empty 70 40 0 14 -233017
-66577 0;
#X obj 27 235 bng 40 250 50 0 convert empty START_to_Convert -10 -11
0 10 -258113 -1 -258113;
#X obj 79 275 hsl 2 8 0 127 0 0 empty converting empty -2 -8 0 10 -233017
-233017 -233017 0 1;
