#N canvas 0 25 1016 679 10;
#X obj 4 33 cnv 15 150 50 empty empty empty 20 12 0 14 -195568 -66577
0;
#X msg 12 48 \; pd dsp 1;
#X msg 79 48 \; pd dsp 0;
#X obj 313 141 adc~;
#X obj 231 302 vsl 15 128 0 127 0 0 audio_slider_60 empty 60 0 -8 0
8 -262144 -1 -1 0 1;
#X obj 254 302 vsl 15 128 0 127 0 0 audio_slider_170 empty 170 0 -8
0 8 -262144 -1 -1 0 1;
#X obj 279 302 vsl 15 128 0 127 0 0 audio_slider_210 empty 310 0 -8
0 8 -262144 -1 -1 0 1;
#X obj 303 302 vsl 15 128 0 127 0 0 audio_slider_600 empty 600 0 -8
0 8 -262144 -1 -1 0 1;
#X obj 328 303 vsl 15 128 0 127 0 0 audio_slider_1kh empty 1kh 0 -8
0 8 -262144 -1 -1 0 1;
#X obj 350 303 vsl 15 128 0 127 0 0 audio_slider_3kh empty 3kh 0 -8
0 8 -262144 -1 -1 0 1;
#X obj 370 303 vsl 15 128 0 127 0 0 audio_slider_6kh empty 6kh 0 -8
0 8 -262144 -1 -1 0 1;
#X obj 393 303 vsl 15 128 0 127 0 0 audio_slider_12kh empty 12kh 0
-8 0 8 -262144 -1 -1 0 1;
#X obj 417 303 vsl 15 128 0 127 0 0 audio_slider_14kh empty 14kh 0
-8 0 8 -262144 -1 -1 0 1;
#X obj 441 303 vsl 15 128 0 127 0 0 audio_slider_16kh empty 16kh 0
-8 0 8 -262144 -1 -1 0 1;
#X obj 655 474 fiddle~ 1024 1 20 3;
#X obj 782 490 bng 20 250 50 0 empty empty empty 0 -6 0 10 -262144
-1 -1;
#X obj 582 437 *~;
#X text 359 83 test input pitch;
#X obj 709 514 unpack;
#X floatatom 709 564 0 0 0 0 - - -;
#X floatatom 723 541 0 0 0 0 - - -;
#X text 709 586 raw pitch;
#X floatatom 738 495 5 0 0 0 - - -;
#X obj 652 443 *~;
#X obj 728 445 *~;
#X obj 676 355 loadbang;
#X obj 795 551 fiddle~ 1024 1 20 3;
#X obj 922 567 bng 20 250 50 0 empty empty empty 0 -6 0 10 -262144
-1 -1;
#X obj 849 591 unpack;
#X floatatom 849 641 0 0 0 0 - - -;
#X floatatom 863 618 0 0 0 0 - - -;
#X text 849 663 raw pitch;
#X floatatom 878 572 5 0 0 0 - - -;
#X obj 525 564 fiddle~ 1024 1 20 3;
#X obj 652 580 bng 20 250 50 0 empty empty empty 0 -6 0 10 -262144
-1 -1;
#X obj 579 604 unpack;
#X floatatom 579 654 0 0 0 0 - - -;
#X floatatom 593 631 0 0 0 0 - - -;
#X text 579 676 raw pitch;
#X floatatom 608 585 5 0 0 0 - - -;
#X obj 644 609 s audio_bass_bang;
#X obj 381 115 loadbang;
#X obj 914 596 s audio_higth_bang;
#X obj 774 519 s audio_middle_bang;
#X msg 386 140 1;
#X msg 752 389 20;
#X msg 599 391 20;
#X msg 676 387 20;
#X obj 309 177 audio_analisis;
#X obj 200 161 adc~;
#X connect 3 0 48 0;
#X connect 3 1 48 0;
#X connect 14 1 15 0;
#X connect 14 2 18 0;
#X connect 14 3 22 0;
#X connect 15 0 43 0;
#X connect 16 0 33 0;
#X connect 18 0 19 0;
#X connect 18 1 20 0;
#X connect 23 0 14 0;
#X connect 24 0 26 0;
#X connect 25 0 47 0;
#X connect 25 0 45 0;
#X connect 25 0 46 0;
#X connect 26 1 27 0;
#X connect 26 2 28 0;
#X connect 26 3 32 0;
#X connect 27 0 42 0;
#X connect 28 0 29 0;
#X connect 28 1 30 0;
#X connect 33 1 34 0;
#X connect 33 2 35 0;
#X connect 33 3 39 0;
#X connect 34 0 40 0;
#X connect 35 0 36 0;
#X connect 35 1 37 0;
#X connect 41 0 44 0;
#X connect 41 0 1 0;
#X connect 44 0 48 1;
#X connect 45 0 24 1;
#X connect 46 0 16 1;
#X connect 47 0 23 1;
#X connect 48 0 4 0;
#X connect 48 1 16 0;
#X connect 48 2 5 0;
#X connect 48 3 6 0;
#X connect 48 4 7 0;
#X connect 48 5 8 0;
#X connect 48 6 23 0;
#X connect 48 7 9 0;
#X connect 48 8 10 0;
#X connect 48 9 11 0;
#X connect 48 10 12 0;
#X connect 48 11 13 0;
#X connect 48 12 24 0;
