#N canvas 151 56 450 300 10;
#X obj 126 -58 switch 3;
#X obj 141 -124 r audio_bass_bang;
#X obj 172 -80 r audio_higth_bang;
#X obj 158 -104 r audio_middle_bang;
#X obj 127 -145 + 1;
#X obj 154 -15 outlet;
#X obj 128 -169 inlet;
#X connect 0 0 5 0;
#X connect 1 0 0 1;
#X connect 2 0 0 3;
#X connect 3 0 0 2;
#X connect 4 0 0 0;
#X connect 6 0 4 0;
