#N canvas 423 130 471 405 10;
#X obj 158 174 r me;
#X obj 133 356 list-idx;
#X msg 195 258 set \$1 \$2 \$3;
#X obj 192 283 t b a;
#X obj 139 321 list-fifo;
#X obj 158 82 r router_find_id;
#X obj 217 182 r router_launcher_id;
#X obj 139 390 outlet;
#X obj 274 115 inlet;
#X obj 164 148 t b b f;
#X obj 268 142 t b;
#X msg 166 102 set \$1;
#X msg 370 231 set 0 0 0;
#X msg 358 297 clear;
#X obj 55 216 bang;
#X obj 149 284 t b a;
#X obj 26 194 initbang;
#X msg 288 218 0 0 0;
#X msg 168 127 1;
#X text 82 24 this abstraction finds that Id number of selected abstraction
in channel;
#X obj 169 220 list-replace;
#X obj 363 162 loadbang;
#X obj 155 240 route bang;
#X connect 0 0 20 0;
#X connect 1 0 7 0;
#X connect 2 0 3 0;
#X connect 3 0 17 0;
#X connect 3 1 17 0;
#X connect 4 0 1 0;
#X connect 5 0 11 0;
#X connect 6 0 20 1;
#X connect 8 0 10 0;
#X connect 9 1 20 0;
#X connect 9 2 1 1;
#X connect 10 0 18 0;
#X connect 11 0 18 0;
#X connect 12 0 17 0;
#X connect 13 0 4 0;
#X connect 14 0 20 0;
#X connect 15 0 4 0;
#X connect 15 1 4 1;
#X connect 16 0 14 0;
#X connect 17 0 20 2;
#X connect 18 0 9 0;
#X connect 20 0 15 0;
#X connect 21 0 13 0;
#X connect 21 0 12 0;
#X connect 22 1 2 0;
