#N canvas 0 0 450 300 10;
#X obj 148 -30 r master_clock;
#X obj 167 -7 r half_clock;
#X obj 178 19 r quarter_clock;
#X obj 182 37 r manual_clock;
#X obj 132 65 switch 4;
#X obj 126 -52 + 1;
#X obj 134 112 outlet;
#X obj 124 -103 inlet;
#X connect 0 0 4 1;
#X connect 1 0 4 2;
#X connect 2 0 4 3;
#X connect 3 0 4 4;
#X connect 4 0 6 0;
#X connect 5 0 4 0;
#X connect 7 0 5 0;
