#N canvas 638 58 471 524 10;
#X obj 200 98 t a b;
#X obj 200 62 inlet;
#X obj 354 139 dollarg;
#X msg 355 161 \$1;
#X obj 298 229 pack 0 s;
#X msg 318 291 set \$1-\$2;
#X obj 297 250 t b a;
#X obj 296 346 symbol;
#X msg 315 320 1193-mouse-cord;
#X obj 351 114 initbang;
#X obj 357 183 symbol;
#X obj 357 206 route symbol;
#X text 99 16 this abstraction creates a send message like this= NumberID
of choosen channel+message type symbol (doll 0 arg) + value;
#X obj 231 124 findId;
#X obj 201 362 pack 0 0 s;
#X msg 199 446 \; \$3 \$1 \$2;
#X obj 202 321 unpack f f;
#X connect 0 0 16 0;
#X connect 0 1 13 0;
#X connect 1 0 0 0;
#X connect 2 0 3 0;
#X connect 3 0 10 0;
#X connect 4 0 6 0;
#X connect 5 0 8 0;
#X connect 6 0 8 0;
#X connect 6 1 5 0;
#X connect 7 0 14 2;
#X connect 8 0 7 0;
#X connect 9 0 2 0;
#X connect 10 0 11 0;
#X connect 11 0 4 1;
#X connect 13 0 4 0;
#X connect 14 0 15 0;
#X connect 16 0 14 0;
#X connect 16 1 14 1;
