#N canvas 532 55 492 511 10;
#X msg 189 436 \; \$2 \$1;
#X obj 190 88 t a b;
#X obj 190 52 inlet;
#X obj 344 129 dollarg;
#X msg 345 151 \$1;
#X obj 288 219 pack 0 s;
#X msg 308 281 set \$1-\$2;
#X obj 287 240 t b a;
#X obj 286 336 symbol;
#X msg 305 310 1480-video-translate;
#X obj 341 104 initbang;
#X obj 347 173 symbol;
#X obj 347 196 route symbol;
#X obj 191 352 pack s s;
#X text 89 6 this abstraction creates a send message like this= NumberID
of choosen channel+message type symbol (doll 0 arg) + value;
#X obj 222 114 findId;
#X connect 1 0 13 0;
#X connect 1 1 15 0;
#X connect 2 0 1 0;
#X connect 3 0 4 0;
#X connect 4 0 11 0;
#X connect 5 0 7 0;
#X connect 6 0 9 0;
#X connect 7 0 9 0;
#X connect 7 1 6 0;
#X connect 8 0 13 1;
#X connect 9 0 8 0;
#X connect 10 0 3 0;
#X connect 11 0 12 0;
#X connect 12 0 5 1;
#X connect 13 0 0 0;
#X connect 15 0 5 0;
